<svg id="svg" version="1.1" xmlns="http://www.w3.org/2000/svg" xmlns:xlink="http://www.w3.org/1999/xlink" width="400" height="400" viewBox="0, 0, 400,400"><g id="svgg"><path id="path0" d="M202.953 9.060 C 160.434 11.475,121.971 32.807,97.901 67.323 C 79.877 93.168,68.765 130.658,69.340 163.681 C 69.621 179.789,75.894 187.851,82.801 180.980 L 84.012 179.775 84.144 181.669 C 84.787 190.856,88.222 197.920,93.295 200.485 L 94.193 200.939 100.000 197.414 C 106.094 193.715,106.220 193.615,108.485 190.693 C 116.403 180.479,121.229 161.557,121.332 140.328 L 121.358 134.888 123.917 134.556 C 140.515 132.398,164.036 126.279,172.465 121.926 C 182.292 116.850,190.090 108.942,206.503 87.402 C 232.094 53.818,242.877 47.212,263.550 52.452 C 277.418 55.968,285.833 64.794,286.771 76.808 L 286.914 78.642 287.395 77.301 C 288.034 75.520,288.104 75.788,288.279 80.709 C 288.358 82.928,288.451 84.774,288.486 84.810 C 288.521 84.846,289.552 84.121,290.778 83.199 C 292.003 82.277,293.034 81.551,293.069 81.586 C 293.104 81.621,292.148 83.618,290.945 86.024 C 289.741 88.429,288.788 90.429,288.827 90.468 C 288.866 90.506,290.397 90.275,292.228 89.954 C 294.060 89.633,295.606 89.374,295.663 89.380 C 295.721 89.385,295.015 90.102,294.094 90.973 L 292.421 92.557 296.112 92.460 C 298.142 92.407,299.802 92.420,299.801 92.491 C 299.800 92.561,298.590 93.366,297.111 94.281 L 294.423 95.943 295.785 96.359 C 304.895 99.143,309.759 114.621,306.395 130.118 C 304.865 137.165,304.116 143.159,303.554 152.854 C 303.441 154.803,303.300 157.175,303.241 158.126 L 303.135 159.855 305.238 160.837 C 306.395 161.377,307.306 161.851,307.263 161.891 C 307.193 161.955,305.921 161.816,303.888 161.520 C 302.513 161.320,303.140 161.712,305.610 162.598 C 306.964 163.084,308.071 163.545,308.071 163.623 C 308.071 163.940,305.585 166.393,304.293 167.351 L 302.912 168.375 303.009 178.134 C 303.062 183.502,303.204 188.780,303.325 189.862 C 303.851 194.592,304.203 196.921,304.333 196.550 C 304.468 196.165,304.470 196.165,304.587 196.555 C 304.768 197.160,305.812 201.700,306.601 205.311 C 310.327 222.368,326.179 225.264,332.375 210.020 C 335.810 201.572,337.068 181.606,334.915 169.734 C 334.732 168.724,334.898 168.859,339.319 173.276 C 341.621 175.576,343.504 177.369,343.503 177.262 C 343.488 174.132,340.854 163.133,337.665 152.891 C 336.417 148.883,336.414 149.008,337.727 149.892 C 339.661 151.194,341.450 153.748,343.449 158.058 L 344.505 160.335 344.387 159.055 C 343.614 150.674,340.710 142.226,336.652 136.553 C 335.209 134.537,335.090 134.338,335.452 134.550 C 338.580 136.382,342.351 139.602,344.287 142.093 C 344.880 142.856,345.396 143.449,345.434 143.411 C 345.621 143.224,343.661 138.849,341.816 135.335 C 334.177 120.776,331.165 113.779,326.653 100.098 C 324.411 93.300,323.428 90.741,321.843 87.584 C 315.556 75.056,305.765 68.044,294.522 68.018 L 291.702 68.012 291.817 67.421 C 292.085 66.045,292.172 58.457,291.945 56.281 C 290.507 42.542,283.082 31.648,269.633 23.549 C 253.125 13.606,226.141 7.743,202.953 9.060 M249.508 52.375 C 236.730 54.102,227.689 61.794,207.876 87.795 C 195.499 104.038,189.276 111.163,182.874 116.423 C 181.845 117.269,180.915 118.051,180.807 118.163 C 180.467 118.514,188.713 114.207,192.120 112.254 C 203.060 105.984,210.963 99.728,214.902 94.217 C 224.951 80.162,237.131 70.966,249.508 68.091 C 251.790 67.561,261.256 67.337,265.628 67.709 C 275.050 68.512,281.922 71.028,284.668 74.680 L 285.278 75.492 285.146 74.555 C 284.214 67.922,279.715 61.567,273.228 57.719 C 267.051 54.054,255.813 51.523,249.508 52.375 M166.634 124.721 C 166.093 124.984,164.919 125.479,164.026 125.822 C 163.134 126.165,162.431 126.473,162.465 126.507 C 162.646 126.688,167.913 124.739,167.913 124.491 C 167.913 124.131,167.812 124.150,166.634 124.721 M167.913 132.970 C 166.235 133.228,162.958 133.629,160.630 133.861 C 152.203 134.700,151.863 134.871,149.623 139.365 C 148.893 140.830,148.059 142.402,147.770 142.860 C 147.481 143.318,147.244 143.737,147.244 143.790 C 147.244 143.843,148.927 142.784,150.984 141.437 C 153.041 140.090,154.724 139.037,154.724 139.099 C 154.724 139.161,153.521 140.848,152.050 142.849 C 150.578 144.850,149.406 146.519,149.445 146.558 C 149.484 146.597,151.640 145.397,154.236 143.891 C 159.435 140.877,159.273 140.943,159.718 141.622 C 160.031 142.100,160.021 142.114,157.964 143.914 C 156.827 144.910,155.920 145.748,155.950 145.775 C 155.980 145.803,159.164 145.087,163.025 144.184 L 170.047 142.543 172.474 142.809 C 180.500 143.691,189.656 143.738,192.803 142.914 C 195.695 142.156,196.110 142.282,203.455 146.149 C 206.610 147.810,208.200 147.859,209.325 146.329 C 209.635 145.907,209.650 145.789,209.423 145.575 C 209.090 145.261,194.691 135.236,194.573 135.236 C 194.526 135.236,194.488 136.042,194.488 137.028 L 194.488 138.820 193.652 138.304 C 185.763 133.446,176.836 131.595,167.913 132.970 M254.311 151.091 C 250.240 155.769,250.297 155.845,257.677 155.586 C 260.113 155.500,263.056 155.426,264.218 155.422 L 266.329 155.413 278.588 161.556 C 291.445 167.999,293.337 168.842,295.381 169.033 C 298.372 169.312,302.585 167.515,305.105 164.884 C 305.938 164.015,306.823 164.474,298.425 161.420 C 294.473 159.983,291.173 158.747,291.091 158.673 C 291.009 158.600,292.780 158.778,295.028 159.069 C 297.275 159.361,299.138 159.578,299.167 159.553 C 299.196 159.528,297.203 158.557,294.738 157.396 C 292.273 156.235,290.185 155.217,290.099 155.133 C 290.013 155.050,290.881 154.866,292.028 154.724 C 294.426 154.428,294.425 154.409,291.943 153.558 C 290.089 152.922,287.239 151.581,285.764 150.649 C 282.109 148.342,269.753 148.924,263.538 151.697 C 262.325 152.238,261.578 151.123,262.746 150.516 C 263.352 150.202,264.889 149.016,264.690 149.016 C 264.620 149.016,263.744 149.143,262.744 149.298 C 260.505 149.646,256.299 149.906,256.299 149.696 C 256.299 149.612,256.524 149.158,256.800 148.689 C 257.557 147.396,257.374 147.572,254.311 151.091 M172.441 156.283 C 168.369 157.763,166.277 158.858,166.677 159.299 C 167.849 160.595,171.861 163.127,174.508 164.241 C 177.139 165.349,177.191 165.353,176.306 164.374 C 174.190 162.031,173.759 159.004,175.093 155.856 C 175.311 155.342,174.807 155.423,172.441 156.283 M189.018 156.751 C 190.288 160.078,188.702 164.142,185.438 165.925 C 183.990 166.716,184.350 166.825,187.867 166.663 C 191.467 166.498,197.632 165.426,198.189 164.868 C 198.342 164.716,196.998 162.562,195.840 161.104 C 194.432 159.333,192.199 157.522,190.152 156.493 L 188.627 155.727 189.018 156.751 M269.350 169.815 C 270.863 172.574,270.062 176.708,267.588 178.913 L 266.547 179.841 268.264 179.677 C 271.142 179.402,276.169 178.211,277.164 177.568 C 278.054 176.993,273.180 171.168,270.451 169.547 C 268.701 168.508,268.641 168.522,269.350 169.815 M253.800 170.159 C 251.515 171.362,249.517 172.653,247.891 173.977 L 246.773 174.888 248.017 175.140 C 248.701 175.278,249.538 175.562,249.877 175.770 C 251.649 176.860,256.530 178.937,257.320 178.937 C 257.430 178.937,257.246 178.624,256.910 178.241 C 254.997 176.062,254.476 172.495,255.717 170.063 C 256.358 168.805,256.374 168.805,253.800 170.159 M100.716 198.611 L 95.035 202.067 95.166 205.118 C 95.763 218.962,93.361 230.747,88.686 236.909 C 84.867 241.945,82.304 249.753,81.581 258.563 L 81.452 260.138 83.495 258.120 C 85.820 255.824,85.921 255.773,85.738 256.992 C 85.193 260.628,85.742 279.790,86.539 284.917 L 86.657 285.681 87.910 283.342 L 89.162 281.004 89.168 283.661 C 89.189 292.543,91.096 303.331,93.647 308.989 L 94.016 309.808 95.156 308.335 C 95.783 307.524,96.321 306.889,96.352 306.924 C 96.383 306.960,96.651 307.830,96.949 308.858 C 99.284 316.924,104.410 326.239,109.407 331.496 L 110.810 332.972 110.826 329.035 L 110.841 325.098 111.791 327.559 C 115.023 335.931,120.005 343.641,125.975 349.508 C 127.297 350.807,128.653 352.180,128.989 352.559 C 146.453 372.272,174.074 382.997,203.051 381.318 C 236.035 379.406,264.380 369.285,279.266 354.105 L 281.070 352.264 285.741 341.437 C 288.309 335.482,290.550 330.300,290.721 329.921 L 291.031 329.232 291.162 330.512 C 291.234 331.216,291.303 332.407,291.316 333.159 C 291.348 335.084,291.555 334.706,292.708 330.610 C 295.152 321.933,296.219 314.335,295.457 311.032 C 295.272 310.226,295.292 310.127,295.708 309.806 C 296.326 309.331,296.211 309.237,297.630 311.373 L 298.903 313.287 299.141 312.008 C 300.134 306.690,300.115 297.739,299.098 290.680 C 298.727 288.108,298.652 288.206,300.208 289.245 C 300.905 289.711,301.734 290.259,302.050 290.464 L 302.623 290.836 302.497 287.790 C 302.295 282.922,301.479 278.580,300.190 275.511 C 299.873 274.757,299.654 274.099,299.703 274.050 C 299.772 273.981,303.390 275.172,306.676 276.345 C 306.850 276.407,306.902 276.360,306.815 276.219 C 306.303 275.392,305.018 266.767,304.333 259.568 L 303.942 255.455 304.637 251.694 C 309.164 227.208,309.236 225.509,306.353 211.040 L 305.238 205.446 304.777 208.481 C 303.049 219.854,297.490 242.422,294.852 248.773 C 291.768 256.198,288.069 259.112,283.269 257.898 C 280.372 257.165,275.890 257.371,271.161 258.455 C 268.549 259.054,262.973 260.869,263.049 261.096 C 263.778 263.284,282.876 267.277,287.623 266.235 C 288.470 266.049,288.570 266.230,288.250 267.371 C 286.538 273.464,279.729 280.926,274.208 282.760 C 265.933 285.508,255.671 285.034,245.376 281.427 C 242.999 280.594,243.004 280.591,244.538 281.836 C 251.598 287.565,253.515 292.328,251.789 299.855 C 249.416 310.208,240.907 320.481,232.605 323.014 C 226.610 324.844,219.424 322.914,213.803 317.966 L 212.688 316.985 204.674 315.630 C 196.789 314.297,196.652 314.281,196.116 314.631 C 189.972 318.645,179.059 317.386,167.077 311.281 C 163.023 309.215,157.568 302.252,154.648 295.414 C 150.415 285.505,151.708 277.026,158.536 269.911 C 159.527 268.879,159.535 268.861,158.957 268.976 C 143.535 272.042,128.499 265.277,124.481 253.465 C 123.908 251.780,123.870 251.803,125.295 252.970 C 130.163 256.956,134.681 256.609,143.417 251.578 C 146.050 250.061,155.709 244.121,156.063 243.800 C 156.262 243.620,155.666 243.516,153.406 243.333 C 148.707 242.953,147.843 242.908,141.535 242.714 C 125.114 242.210,121.481 239.909,119.196 228.563 C 117.847 221.862,115.836 218.518,111.157 215.194 L 109.562 214.060 108.914 212.048 C 107.676 208.204,106.827 203.069,106.532 197.627 L 106.398 195.156 100.716 198.611 M188.484 233.265 C 177.232 234.467,167.560 238.489,150.438 249.083 C 138.144 256.690,133.276 258.412,128.703 256.770 L 127.582 256.368 128.407 257.551 C 135.041 267.065,148.243 270.370,163.669 266.378 C 164.889 266.062,165.205 266.052,166.622 266.279 C 186.558 269.483,204.195 265.499,210.366 256.398 C 215.066 249.464,214.520 243.078,208.993 240.357 C 208.203 239.969,207.324 239.298,206.549 238.493 C 202.575 234.365,195.997 232.462,188.484 233.265 M229.626 241.027 C 227.781 241.388,226.622 241.791,224.508 242.806 C 223.533 243.274,222.293 243.762,221.752 243.891 C 212.011 246.205,214.600 259.799,226.631 269.509 C 241.113 281.198,261.753 286.002,275.000 280.767 C 278.164 279.516,283.592 273.773,285.818 269.321 C 286.596 267.765,286.823 267.898,283.046 267.697 C 269.240 266.966,262.305 264.059,255.387 256.104 C 244.845 243.981,237.244 239.533,229.626 241.027 M182.776 268.882 L 181.594 268.996 185.531 270.315 C 201.185 275.561,217.835 278.316,231.138 277.861 C 236.525 277.677,236.505 277.687,234.158 276.421 L 232.254 275.394 230.054 275.393 C 219.315 275.390,203.925 273.165,192.082 269.904 C 189.614 269.224,185.360 268.591,184.221 268.734 C 184.076 268.752,183.425 268.819,182.776 268.882 M180.955 288.632 C 179.004 290.716,177.432 292.448,177.460 292.480 C 177.489 292.512,178.908 292.221,180.614 291.833 C 182.321 291.445,183.787 291.153,183.872 291.184 C 183.957 291.215,182.616 292.907,180.891 294.945 C 177.494 298.959,177.599 298.818,178.100 298.703 C 179.163 298.461,189.618 296.641,189.659 296.692 C 189.685 296.725,188.788 298.463,187.664 300.553 C 186.541 302.644,185.672 304.436,185.733 304.535 C 185.904 304.813,189.840 306.025,193.996 307.081 C 199.239 308.414,203.091 309.028,208.273 309.358 L 210.345 309.490 211.219 305.542 C 211.699 303.370,212.140 301.638,212.198 301.692 C 212.256 301.746,213.012 303.535,213.878 305.667 L 215.453 309.543 216.240 309.679 C 219.613 310.261,224.339 310.280,227.128 309.722 L 227.747 309.598 227.800 306.360 L 227.854 303.121 229.987 304.727 C 231.160 305.610,232.145 306.303,232.177 306.267 C 232.208 306.230,230.774 303.046,228.990 299.191 L 225.745 292.181 219.713 292.067 C 207.028 291.829,196.473 289.814,187.107 285.844 C 185.808 285.293,184.690 284.843,184.623 284.843 C 184.556 284.843,182.905 286.548,180.955 288.632 " stroke="none" fill="#e6d8d8" fill-rule="evenodd"></path><path id="path1" d="M76.424 107.718 C 69.678 126.005,66.033 144.372,65.142 164.567 C 64.580 177.304,66.546 186.340,70.774 190.449 L 71.654 191.304 71.435 192.847 C 71.006 195.870,72.160 209.373,73.543 217.520 C 75.310 227.933,78.536 235.994,82.726 240.474 C 84.176 242.024,84.005 242.051,84.972 240.108 C 85.416 239.215,86.267 237.807,86.862 236.980 L 87.945 235.475 86.135 233.633 C 81.833 229.253,79.030 222.961,76.967 213.049 C 75.223 204.670,73.731 188.371,74.375 184.744 C 74.509 183.991,74.473 183.914,73.527 182.960 C 70.016 179.419,67.913 171.728,67.914 162.438 C 67.918 144.557,71.375 123.486,77.058 106.708 C 78.139 103.516,77.738 104.155,76.424 107.718 M182.825 153.289 C 183.068 153.335,183.467 153.335,183.711 153.289 C 183.954 153.242,183.755 153.203,183.268 153.203 C 182.781 153.203,182.581 153.242,182.825 153.289 M339.437 153.839 C 339.488 154.055,340.114 156.251,340.828 158.719 C 341.542 161.187,342.126 163.350,342.126 163.525 C 342.126 163.701,342.179 163.792,342.244 163.727 C 342.660 163.311,340.901 156.083,340.022 154.595 C 339.648 153.962,339.385 153.622,339.437 153.839 M178.740 154.659 C 178.469 154.701,177.615 154.870,176.841 155.034 L 175.435 155.333 174.973 156.357 C 173.438 159.768,175.214 164.539,178.354 165.439 C 184.070 167.078,186.900 166.206,188.743 162.239 C 189.756 160.060,189.320 155.988,188.020 155.479 C 186.118 154.733,181.088 154.289,178.740 154.659 M259.843 167.910 C 255.975 168.749,254.925 170.048,255.160 173.706 C 255.442 178.100,257.261 179.380,263.613 179.657 L 266.497 179.783 267.602 178.738 C 270.066 176.408,270.755 172.925,269.327 170.024 C 268.198 167.729,264.489 166.903,259.843 167.910 M336.699 173.228 C 336.873 174.323,337.205 179.796,337.205 181.564 L 337.205 183.176 339.469 185.433 L 341.732 187.690 341.729 185.922 C 341.725 183.998,341.378 181.235,340.762 178.220 L 340.369 176.297 338.479 174.418 C 336.631 172.581,336.592 172.555,336.699 173.228 M236.829 177.407 C 235.605 183.145,235.235 186.759,235.183 193.504 C 235.140 199.178,235.184 199.480,237.219 207.471 C 239.616 216.880,239.789 221.642,237.897 226.047 C 234.092 234.907,224.785 239.048,217.126 235.288 C 215.097 234.293,215.060 234.295,216.634 235.322 C 222.073 238.870,228.113 238.437,233.153 234.136 C 233.960 233.447,234.701 232.741,234.798 232.567 C 234.915 232.357,235.539 232.152,236.632 231.964 C 238.350 231.668,240.529 230.785,241.279 230.081 C 241.548 229.828,241.847 229.721,242.067 229.798 C 242.263 229.866,242.157 229.701,241.831 229.428 C 240.914 228.664,239.718 228.282,238.586 228.391 C 238.043 228.443,237.598 228.451,237.598 228.408 C 237.598 228.366,237.765 228.002,237.969 227.600 C 240.391 222.833,240.292 217.250,237.598 206.788 C 235.641 199.186,235.746 201.237,236.603 187.500 C 237.015 180.896,237.332 175.468,237.307 175.438 C 237.281 175.408,237.067 176.294,236.829 177.407 M195.408 206.841 C 187.714 216.433,188.017 224.021,196.277 228.593 C 198.356 229.743,198.666 229.788,197.129 228.715 C 189.395 223.317,188.883 216.319,195.542 207.037 C 196.890 205.158,196.829 205.069,195.408 206.841 M245.480 212.802 C 245.476 212.860,245.642 213.391,245.849 213.983 C 248.531 221.639,246.487 231.296,241.661 233.774 C 240.921 234.154,240.808 234.259,241.240 234.165 C 247.013 232.909,249.546 224.154,246.643 215.489 C 246.129 213.955,245.502 212.507,245.480 212.802 M308.594 214.519 C 308.545 214.599,308.624 215.285,308.768 216.043 C 309.065 217.599,309.768 222.837,309.951 224.860 C 310.285 228.539,318.911 229.646,323.861 226.646 C 326.123 225.275,328.670 222.193,330.022 219.191 C 330.478 218.177,331.693 214.847,331.693 214.609 C 331.693 214.564,331.288 215.066,330.794 215.724 C 325.324 223.001,315.568 223.036,309.817 215.799 C 309.194 215.014,308.643 214.438,308.594 214.519 M198.384 221.651 C 197.262 221.990,195.525 223.819,196.326 223.819 C 196.483 223.819,196.662 223.687,196.724 223.525 C 196.932 222.984,198.089 222.442,199.039 222.442 L 199.948 222.441 200.712 223.747 C 202.407 226.645,204.597 227.847,208.227 227.870 L 210.647 227.885 211.598 228.610 C 212.599 229.373,213.990 230.799,214.702 231.791 C 215.434 232.812,215.378 232.215,214.635 231.092 C 211.311 226.060,201.898 220.592,198.384 221.651 M81.232 249.178 C 79.737 252.510,78.418 257.287,77.767 261.731 C 77.313 264.829,76.856 270.622,77.050 270.816 C 77.121 270.887,78.105 270.021,79.239 268.891 L 81.299 266.838 81.300 274.216 C 81.301 283.838,81.675 289.764,82.614 295.030 C 83.005 297.226,83.032 297.233,83.986 295.380 C 84.837 293.727,85.001 293.788,85.027 295.768 C 85.114 302.253,87.371 312.430,89.970 318.057 L 90.755 319.754 91.771 318.431 L 92.787 317.108 93.620 319.471 C 96.683 328.164,101.429 335.959,106.978 341.414 L 108.957 343.360 109.055 341.350 L 109.154 339.340 109.914 340.880 C 113.941 349.036,117.122 353.066,128.839 364.855 C 146.198 382.322,173.189 391.708,201.083 389.977 C 233.758 387.950,261.922 377.813,277.091 362.619 L 279.083 360.623 280.606 357.132 C 281.444 355.212,282.178 353.519,282.238 353.369 C 282.298 353.218,281.380 354.060,280.199 355.239 C 258.371 377.022,207.652 388.626,172.441 379.893 C 156.052 375.828,139.401 366.315,129.708 355.477 C 128.805 354.468,126.734 352.313,125.106 350.689 C 120.335 345.931,116.924 341.234,113.311 334.449 L 112.211 332.382 112.208 334.203 C 112.204 336.439,112.319 336.449,109.858 334.006 C 104.209 328.397,99.587 320.804,96.558 312.154 L 95.747 309.840 94.806 311.122 C 93.675 312.661,93.763 312.699,92.663 310.189 C 90.398 305.015,88.809 298.433,88.186 291.634 C 88.057 290.226,87.894 288.553,87.824 287.916 L 87.697 286.758 86.909 288.259 C 85.928 290.130,85.957 290.136,85.569 287.943 C 84.561 282.245,84.190 276.769,84.170 267.277 L 84.154 259.653 82.182 261.618 C 81.097 262.698,80.145 263.583,80.066 263.583 C 79.511 263.583,80.399 254.820,81.410 250.313 C 81.973 247.807,81.940 247.600,81.232 249.178 M186.614 268.701 C 186.403 268.837,186.599 268.889,187.303 268.881 C 188.033 268.873,188.186 268.826,187.894 268.701 C 187.362 268.472,186.968 268.472,186.614 268.701 M178.563 269.527 C 191.258 278.753,211.829 282.911,232.900 280.510 C 238.619 279.859,239.433 279.707,238.969 279.382 C 238.753 279.231,238.628 279.022,238.692 278.919 C 239.200 278.097,237.187 277.881,228.839 277.858 C 222.624 277.841,220.089 277.759,217.815 277.500 C 206.151 276.170,195.262 273.741,184.609 270.091 C 181.393 268.989,180.995 268.898,179.412 268.898 L 177.697 268.898 178.563 269.527 M302.064 276.521 C 302.456 277.493,303.347 281.461,303.564 283.205 L 303.811 285.184 304.799 285.500 C 306.049 285.899,306.017 285.991,305.338 283.935 C 305.019 282.972,304.545 280.989,304.283 279.528 L 303.808 276.871 302.865 276.521 C 301.962 276.186,301.928 276.186,302.064 276.521 M296.993 315.771 C 296.932 317.220,296.690 319.502,296.456 320.843 C 296.091 322.937,296.070 323.319,296.307 323.557 C 296.800 324.050,298.311 315.852,297.966 314.560 C 297.453 312.642,297.108 313.072,296.993 315.771 M288.700 338.093 C 286.795 342.504,286.769 342.569,286.978 342.439 C 287.090 342.370,287.220 343.254,287.302 344.636 C 287.376 345.908,287.496 347.387,287.568 347.922 L 287.699 348.896 289.049 344.721 L 290.399 340.547 290.229 337.746 L 290.059 334.946 288.700 338.093 " stroke="none" fill="#507665" fill-rule="evenodd"></path><path id="path2" d="M87.081 80.344 C 42.088 117.885,18.858 174.958,24.715 233.563 C 32.996 316.399,99.153 382.556,181.988 390.836 C 282.275 400.860,370.100 325.870,375.803 225.346 C 376.067 220.703,375.938 206.074,375.600 202.264 C 372.472 167.022,361.093 136.803,340.779 109.793 C 335.550 102.840,324.850 90.690,325.482 92.421 C 325.561 92.638,326.671 95.960,327.948 99.803 C 332.752 114.254,333.932 116.971,343.983 136.713 C 346.588 141.829,347.195 143.854,347.937 149.902 C 348.021 150.587,347.885 150.407,346.892 148.517 C 345.520 145.903,344.174 143.929,342.365 141.875 C 340.212 139.429,340.016 139.414,341.134 141.777 C 344.443 148.773,346.141 157.218,345.754 164.751 L 345.618 167.396 344.689 164.751 C 343.441 161.196,340.972 155.512,340.676 155.512 C 340.640 155.512,340.866 156.508,341.180 157.726 C 341.494 158.944,341.966 161.277,342.230 162.911 C 342.494 164.544,342.938 166.847,343.218 168.029 C 344.284 172.529,345.182 179.474,344.781 180.122 C 344.685 180.277,343.899 179.630,342.472 178.220 C 340.621 176.392,340.328 176.168,340.447 176.673 C 341.164 179.716,341.724 183.759,341.729 185.922 L 341.732 187.690 339.498 185.463 L 337.264 183.235 337.145 188.517 C 336.894 199.584,335.531 206.827,332.577 212.795 C 332.121 213.716,331.548 215.089,331.304 215.846 C 329.709 220.782,326.964 224.766,323.861 226.646 C 320.128 228.908,314.399 228.928,310.856 226.691 C 309.827 226.042,309.843 226.038,309.843 226.956 C 309.843 228.981,307.829 242.066,306.016 251.822 L 305.337 255.473 305.621 258.494 C 306.557 268.461,307.538 274.668,308.583 277.248 C 309.179 278.719,309.361 278.684,306.358 277.677 C 304.261 276.974,303.801 276.875,303.854 277.138 C 303.891 277.315,304.149 278.683,304.429 280.178 C 304.709 281.673,305.162 283.519,305.437 284.280 C 306.024 285.907,306.019 285.919,304.927 285.534 C 304.464 285.370,304.029 285.236,303.961 285.236 C 303.894 285.236,303.839 286.956,303.839 289.058 C 303.839 293.593,303.952 293.398,302.063 292.123 L 300.551 291.103 300.663 291.664 C 301.600 296.354,301.389 307.720,300.258 313.484 C 299.602 316.825,299.603 316.824,298.796 315.603 L 298.136 314.606 297.798 317.293 C 297.253 321.639,296.680 323.904,296.228 323.495 C 295.889 323.188,295.866 323.191,295.865 323.542 C 295.860 324.667,292.772 335.573,291.076 340.453 C 290.619 341.768,290.594 341.799,290.525 341.142 C 290.466 340.582,290.194 341.246,289.076 344.674 L 287.699 348.896 287.568 347.922 C 287.496 347.387,287.376 345.900,287.300 344.617 C 287.225 343.335,287.095 342.360,287.010 342.452 C 286.926 342.543,285.197 346.471,283.169 351.181 C 278.665 361.638,279.337 360.377,277.034 362.679 C 261.867 377.832,233.706 387.953,201.083 389.977 C 173.189 391.708,146.198 382.322,128.839 364.855 C 117.122 353.066,113.941 349.036,109.914 340.880 L 109.154 339.340 109.055 341.350 L 108.957 343.360 106.978 341.414 C 101.429 335.959,96.683 328.164,93.620 319.471 L 92.787 317.108 91.771 318.431 L 90.755 319.754 89.970 318.057 C 87.371 312.430,85.114 302.253,85.027 295.768 C 85.001 293.788,84.837 293.727,83.986 295.380 C 83.032 297.233,83.005 297.226,82.614 295.030 C 81.675 289.764,81.301 283.838,81.300 274.216 L 81.299 266.838 79.239 268.891 C 78.105 270.021,77.121 270.887,77.050 270.816 C 76.856 270.622,77.313 264.829,77.767 261.731 C 78.475 256.902,80.014 251.573,81.642 248.318 C 81.964 247.673,82.473 246.393,82.772 245.472 C 83.072 244.552,83.494 243.379,83.710 242.864 L 84.103 241.930 82.834 240.584 C 76.865 234.257,73.474 222.812,71.858 203.543 C 71.270 196.521,71.192 194.562,71.435 192.847 L 71.654 191.304 70.774 190.449 C 66.546 186.340,64.580 177.304,65.142 164.567 C 66.140 141.930,70.255 123.057,78.940 101.280 C 82.878 91.405,84.822 87.049,87.696 81.669 C 88.514 80.136,89.148 78.846,89.104 78.802 C 89.060 78.758,88.150 79.452,87.081 80.344 " stroke="none" fill="#74b394" fill-rule="evenodd"></path><path id="path3" d="M202.880 7.691 C 161.947 9.805,124.018 29.965,99.574 62.598 C 79.941 88.810,67.921 126.715,67.914 162.438 C 67.913 171.728,70.016 179.419,73.527 182.960 C 74.473 183.914,74.509 183.991,74.375 184.744 C 73.731 188.371,75.223 204.670,76.967 213.049 C 79.030 222.961,81.833 229.253,86.135 233.633 L 87.945 235.475 86.856 236.980 C 83.129 242.130,80.478 251.431,79.988 261.073 C 79.835 264.088,79.729 264.062,82.182 261.618 L 84.154 259.653 84.170 267.277 C 84.190 276.769,84.561 282.245,85.569 287.943 C 85.957 290.136,85.928 290.130,86.909 288.259 L 87.697 286.758 87.824 287.916 C 87.894 288.553,88.057 290.226,88.186 291.634 C 88.809 298.433,90.398 305.015,92.663 310.189 C 93.763 312.699,93.675 312.661,94.806 311.122 L 95.747 309.840 96.558 312.154 C 99.587 320.804,104.209 328.397,109.858 334.006 C 112.319 336.449,112.204 336.439,112.208 334.203 L 112.211 332.382 113.311 334.449 C 116.924 341.234,120.335 345.931,125.106 350.689 C 126.734 352.313,128.805 354.468,129.708 355.477 C 139.401 366.315,156.052 375.828,172.441 379.893 C 207.586 388.610,258.456 376.998,280.118 355.313 L 282.185 353.244 286.122 344.095 L 290.059 334.946 290.290 338.093 C 290.418 339.824,290.535 341.373,290.551 341.535 C 290.588 341.914,291.087 340.514,292.447 336.220 C 295.331 327.111,296.774 320.622,297.020 315.668 L 297.146 313.126 298.301 314.864 C 299.656 316.903,299.576 316.959,300.258 313.484 C 301.389 307.720,301.600 296.354,300.663 291.664 L 300.551 291.103 302.063 292.123 C 302.895 292.685,303.635 293.084,303.707 293.012 C 304.578 292.136,303.350 279.818,302.064 276.534 C 301.960 276.267,302.654 276.439,305.431 277.368 C 309.476 278.721,309.184 278.732,308.583 277.248 C 307.538 274.668,306.557 268.461,305.621 258.494 L 305.337 255.473 306.016 251.822 C 310.124 229.715,310.551 223.862,308.666 215.472 C 308.383 214.216,308.610 214.280,309.817 215.799 C 312.648 219.361,316.010 221.107,320.079 221.130 C 329.494 221.181,334.906 213.171,336.748 196.457 C 337.165 192.667,337.247 178.154,336.870 174.705 C 336.752 173.622,336.668 172.722,336.684 172.704 C 336.700 172.687,338.484 174.382,340.650 176.472 C 342.815 178.562,344.664 180.225,344.759 180.168 C 345.637 179.640,343.388 167.473,340.722 158.331 C 340.065 156.077,339.483 154.055,339.429 153.839 C 339.303 153.330,340.542 155.240,341.407 156.890 C 342.388 158.759,343.632 161.739,344.689 164.751 L 345.618 167.396 345.754 164.751 C 346.141 157.218,344.443 148.773,341.134 141.777 C 340.016 139.414,340.212 139.429,342.365 141.875 C 344.174 143.929,345.520 145.903,346.892 148.517 C 347.885 150.407,348.021 150.587,347.937 149.902 C 347.195 143.854,346.588 141.829,343.983 136.713 C 333.808 116.727,332.800 114.394,327.639 98.865 C 324.574 89.646,323.251 86.566,320.516 82.283 C 314.407 72.720,305.155 66.911,295.571 66.621 L 293.209 66.549 293.307 66.001 C 293.569 64.541,293.383 55.752,293.047 53.723 C 289.657 33.240,273.353 19.364,243.799 11.808 C 230.424 8.389,216.497 6.988,202.880 7.691 M221.457 9.344 C 257.322 12.680,282.895 26.623,289.846 46.631 C 291.966 52.733,293.008 63.826,291.827 67.717 C 291.750 67.970,292.162 68.012,294.737 68.012 C 306.819 68.013,317.175 76.245,323.421 90.816 C 323.971 92.099,325.315 95.864,326.407 99.182 C 330.912 112.873,334.222 120.759,340.259 132.185 C 343.452 138.229,344.409 140.214,345.169 142.371 C 345.747 144.012,345.903 144.115,343.504 141.262 C 341.905 139.360,339.871 137.587,337.207 135.771 L 335.142 134.365 336.102 135.711 C 337.736 138.001,338.361 139.007,339.354 140.945 C 342.055 146.222,343.992 153.074,344.388 158.760 L 344.511 160.531 343.832 159.021 C 341.689 154.260,339.798 151.414,337.879 150.066 C 336.425 149.044,336.462 148.857,337.482 152.087 C 340.741 162.410,343.504 173.833,343.504 176.984 C 343.504 177.287,342.376 176.303,339.229 173.255 C 336.878 170.977,334.941 169.132,334.926 169.154 C 334.910 169.175,335.011 170.120,335.150 171.252 C 337.097 187.176,335.632 203.836,331.570 211.942 C 324.992 225.068,310.172 221.422,306.690 205.821 C 304.694 196.876,304.507 196.166,304.332 196.850 C 304.212 197.318,303.917 195.448,303.323 190.453 C 303.207 189.478,303.072 184.075,303.024 178.445 L 302.935 168.209 303.965 167.520 C 305.242 166.665,308.156 163.779,307.937 163.586 C 307.848 163.507,306.735 163.066,305.463 162.606 C 303.090 161.746,302.471 161.278,303.986 161.489 C 304.446 161.553,305.310 161.651,305.906 161.707 L 306.988 161.808 305.050 160.875 L 303.112 159.941 303.239 157.382 C 303.848 145.073,304.778 136.851,306.301 130.315 C 309.866 115.014,304.728 98.752,295.574 96.367 C 294.944 96.203,294.404 96.044,294.374 96.014 C 294.343 95.984,295.530 95.207,297.012 94.289 L 299.705 92.618 296.072 92.564 L 292.440 92.510 293.962 90.980 L 295.484 89.449 292.378 89.990 C 290.669 90.288,289.116 90.536,288.926 90.541 C 288.655 90.549,289.058 89.607,290.794 86.171 C 292.011 83.762,293.041 81.714,293.083 81.619 C 293.125 81.524,292.096 82.250,290.796 83.232 L 288.432 85.016 288.307 82.124 C 288.238 80.534,288.127 78.524,288.059 77.657 L 287.935 76.083 287.422 77.461 L 286.909 78.839 286.772 77.175 C 285.730 64.605,277.471 55.957,263.091 52.382 C 243.374 47.479,231.642 54.432,208.656 84.646 C 183.825 117.284,178.650 121.454,154.555 128.243 C 145.087 130.911,135.313 132.985,126.034 134.295 L 121.457 134.941 121.457 138.905 C 121.456 162.853,115.108 185.439,106.076 193.631 C 105.742 193.934,96.162 199.838,94.240 200.926 C 93.634 201.269,89.936 198.211,88.489 196.171 C 85.916 192.543,84.055 186.086,84.055 180.791 L 84.055 179.874 82.701 181.151 C 76.839 186.681,72.176 182.779,69.762 170.320 L 69.243 167.638 69.346 160.148 C 69.836 124.798,81.317 89.325,100.641 63.459 C 124.035 32.143,160.794 12.013,199.606 9.261 C 201.284 9.142,203.100 9.013,203.642 8.973 C 205.965 8.803,218.429 9.062,221.457 9.344 M256.830 52.469 C 272.704 54.542,282.900 62.317,285.091 74.018 L 285.368 75.498 283.777 73.912 C 277.660 67.819,257.517 65.332,245.768 69.219 C 234.889 72.818,223.494 82.003,215.295 93.781 C 211.227 99.627,203.255 105.974,191.742 112.535 C 188.782 114.222,180.901 118.307,180.607 118.307 C 180.540 118.307,181.045 117.858,181.729 117.310 C 188.837 111.611,194.950 104.701,207.576 88.091 C 230.449 58.001,240.965 50.396,256.830 52.469 M264.404 68.911 C 270.192 69.315,275.134 70.570,279.918 72.851 C 283.992 74.794,285.569 77.288,285.399 81.518 C 285.317 83.551,285.360 83.661,286.233 83.661 C 286.476 83.661,286.655 83.472,286.746 83.120 L 286.885 82.579 287.025 83.071 C 287.102 83.342,287.174 84.427,287.185 85.482 C 287.208 87.683,287.145 87.616,288.330 86.711 C 289.589 85.750,289.578 85.810,287.894 89.173 C 287.069 90.820,286.421 92.192,286.455 92.220 C 286.488 92.249,287.645 92.074,289.026 91.833 C 291.886 91.332,291.924 91.352,290.453 92.609 C 288.910 93.927,288.941 93.946,292.372 93.791 C 294.439 93.697,295.313 93.718,295.177 93.858 C 295.069 93.970,293.474 95.009,291.634 96.167 C 289.793 97.325,288.509 98.224,288.780 98.166 C 293.173 97.219,293.304 97.202,294.537 97.419 C 303.006 98.910,308.421 114.439,305.389 128.543 C 303.648 136.643,302.958 141.903,302.257 152.411 C 302.186 153.467,302.053 154.331,301.960 154.331 C 297.821 154.331,290.882 152.177,286.417 149.506 C 283.040 147.486,276.755 147.278,268.909 148.927 C 266.127 149.512,266.159 149.595,268.416 147.649 C 270.231 146.084,270.289 146.010,269.963 145.650 C 269.506 145.145,269.307 145.175,268.460 145.873 C 267.378 146.765,265.878 147.373,263.681 147.811 C 261.369 148.273,258.359 148.560,258.512 148.305 C 258.570 148.209,259.698 146.181,261.019 143.799 C 262.341 141.417,263.646 139.070,263.920 138.583 L 264.418 137.697 263.823 138.287 C 261.269 140.825,250.195 153.844,250.083 154.442 C 249.651 156.746,252.541 157.402,260.636 156.835 C 265.957 156.462,264.503 155.970,277.657 162.595 C 294.188 170.919,295.437 171.316,299.956 169.668 C 300.576 169.442,301.216 169.216,301.378 169.166 C 301.636 169.086,301.668 169.782,301.630 174.744 C 301.545 186.012,302.205 194.289,303.736 201.160 C 304.571 204.910,302.005 218.371,296.539 238.927 C 292.733 253.237,289.176 257.982,283.366 256.496 C 279.154 255.419,272.216 256.342,264.199 259.047 L 261.332 260.014 260.285 259.120 C 259.710 258.628,258.024 256.840,256.539 255.146 C 243.344 240.098,234.704 236.392,224.213 241.280 C 223.401 241.659,221.927 242.225,220.938 242.539 C 218.431 243.335,216.656 244.557,215.531 246.263 C 215.218 246.737,215.213 246.731,215.002 245.530 C 214.512 242.753,212.765 240.511,209.937 239.035 C 208.994 238.542,207.973 237.809,207.382 237.200 C 199.026 228.588,181.054 230.134,160.774 241.210 L 158.457 242.475 156.195 242.212 C 152.904 241.829,148.324 241.555,141.732 241.347 C 125.689 240.841,122.767 238.997,120.482 227.946 C 119.113 221.325,117.038 217.870,112.303 214.325 C 110.510 212.982,110.462 212.890,109.452 208.760 C 107.615 201.245,107.403 194.166,108.958 192.272 C 117.159 182.283,122.169 163.820,122.579 142.077 C 122.642 138.748,122.722 136.024,122.758 136.024 C 123.977 136.024,135.888 133.991,140.724 132.958 C 177.203 125.166,204.325 110.881,218.717 91.883 C 225.563 82.845,232.095 77.050,239.948 73.046 C 247.393 69.250,253.779 68.171,264.404 68.911 M167.977 124.489 C 168.057 124.697,167.113 125.086,164.134 126.071 C 159.819 127.499,158.644 127.714,162.348 126.399 C 163.623 125.947,165.330 125.275,166.142 124.906 C 167.864 124.125,167.840 124.130,167.977 124.489 M171.161 131.221 C 170.837 131.270,169.413 131.482,167.997 131.694 C 166.582 131.905,163.216 132.305,160.517 132.582 C 151.859 133.472,150.755 133.954,149.049 137.588 C 147.515 140.856,145.688 143.948,143.404 147.142 L 142.421 148.517 143.209 148.040 C 143.642 147.777,144.882 146.976,145.965 146.260 C 148.760 144.410,149.507 143.973,149.309 144.303 C 149.145 144.577,145.053 150.208,144.609 150.770 C 144.321 151.136,144.375 151.107,149.576 148.099 C 151.887 146.763,153.820 145.669,153.871 145.669 C 153.923 145.669,153.338 146.215,152.571 146.881 C 151.804 147.547,151.210 148.126,151.250 148.166 C 151.291 148.207,155.546 147.258,160.707 146.058 L 170.089 143.875 173.184 144.178 C 181.582 144.998,189.040 145.067,192.126 144.352 C 195.534 143.562,196.380 143.790,202.452 147.129 C 206.766 149.501,209.212 149.271,210.859 146.338 L 211.423 145.333 202.316 138.988 L 193.209 132.643 193.152 134.528 L 193.096 136.414 191.284 135.504 C 185.034 132.365,176.159 130.476,171.161 131.221 M176.673 132.487 C 181.910 132.980,188.242 135.028,192.567 137.627 C 193.442 138.153,194.187 138.583,194.224 138.583 C 194.261 138.583,194.291 137.778,194.291 136.795 C 194.291 135.811,194.362 135.036,194.449 135.072 C 195.059 135.325,209.629 145.619,209.636 145.802 C 209.655 146.265,208.614 147.242,207.894 147.435 C 206.730 147.749,205.171 147.224,201.870 145.406 C 197.389 142.937,195.706 142.362,193.996 142.715 C 193.563 142.805,192.544 143.013,191.732 143.177 C 188.424 143.848,182.590 143.787,173.524 142.986 L 169.783 142.655 162.831 144.280 C 159.007 145.174,155.848 145.874,155.811 145.836 C 155.775 145.799,156.246 145.334,156.858 144.805 C 159.938 142.142,159.925 142.157,159.642 141.627 C 159.294 140.977,159.713 140.795,154.212 143.976 C 151.517 145.535,149.278 146.779,149.238 146.741 C 149.197 146.703,150.381 145.024,151.869 143.010 C 153.356 140.997,154.540 139.321,154.501 139.287 C 154.461 139.252,152.836 140.270,150.890 141.548 C 148.943 142.826,147.320 143.843,147.284 143.806 C 147.248 143.770,147.673 142.933,148.229 141.946 C 148.786 140.960,149.554 139.467,149.938 138.629 C 151.589 135.023,152.455 134.622,160.236 133.857 C 162.456 133.639,165.822 133.241,167.717 132.972 C 172.914 132.236,173.602 132.199,176.673 132.487 M176.476 146.582 C 169.182 147.192,162.038 150.106,156.862 154.581 C 156.130 155.214,156.264 155.159,157.776 154.202 C 168.452 147.450,181.654 146.004,195.177 150.104 C 196.368 150.465,197.520 150.814,197.736 150.879 C 198.948 151.244,194.829 149.459,193.012 148.832 C 187.993 147.099,181.251 146.182,176.476 146.582 M256.995 148.446 C 256.723 148.922,256.500 149.391,256.498 149.489 C 256.495 149.747,262.063 149.466,263.581 149.130 C 264.284 148.975,264.884 148.873,264.915 148.904 C 264.985 148.974,263.473 150.192,262.746 150.651 C 261.709 151.307,262.302 152.218,263.424 151.693 C 268.760 149.198,281.245 148.299,284.831 150.152 C 289.075 152.345,290.511 153.011,292.421 153.674 L 294.587 154.425 292.470 154.707 C 291.307 154.862,290.354 155.049,290.354 155.123 C 290.354 155.196,292.391 156.215,294.881 157.386 C 297.371 158.557,299.376 159.548,299.336 159.588 C 299.296 159.628,297.508 159.437,295.363 159.164 C 293.218 158.892,291.439 158.692,291.410 158.721 C 291.381 158.750,294.631 159.966,298.631 161.424 C 302.631 162.882,305.877 164.163,305.843 164.272 C 305.528 165.293,300.318 168.454,298.201 168.909 C 294.488 169.707,294.634 169.766,271.742 158.181 C 265.773 155.160,265.941 155.204,261.643 155.523 C 254.601 156.046,251.378 155.800,251.378 154.740 C 251.378 154.400,257.273 147.387,257.436 147.533 C 257.465 147.560,257.267 147.971,256.995 148.446 M179.035 149.429 C 172.072 150.156,165.286 153.145,160.728 157.495 L 159.154 158.997 156.594 159.517 C 151.661 160.520,147.326 161.137,141.831 161.617 C 140.268 161.753,140.695 161.771,143.898 161.702 C 148.304 161.607,151.274 161.321,156.392 160.496 L 159.732 159.957 161.268 158.543 C 170.867 149.704,187.122 147.948,197.472 154.631 C 200.961 156.884,204.603 160.528,206.600 163.763 C 207.586 165.361,207.694 165.286,206.790 163.632 C 201.284 153.569,190.797 148.202,179.035 149.429 M179.447 153.359 C 175.155 153.832,165.748 156.993,165.748 157.963 C 165.748 159.004,166.208 158.984,168.630 157.835 C 181.226 151.863,192.260 154.068,197.630 163.632 C 197.980 164.254,198.296 164.764,198.333 164.764 C 198.369 164.764,198.629 164.676,198.910 164.570 L 199.420 164.376 198.993 163.536 C 196.879 159.377,190.593 154.134,187.722 154.134 C 187.559 154.134,187.372 154.049,187.308 153.946 C 187.244 153.842,187.048 153.813,186.871 153.881 C 186.639 153.970,186.594 153.931,186.711 153.743 C 186.820 153.567,186.796 153.529,186.637 153.628 C 186.507 153.708,185.807 153.681,185.081 153.568 C 182.990 153.242,181.129 153.173,179.447 153.359 M302.035 156.939 C 301.968 158.157,301.893 159.179,301.868 159.210 C 301.843 159.241,300.174 158.494,298.160 157.548 C 296.146 156.603,294.534 155.794,294.577 155.751 C 294.694 155.635,300.571 154.772,301.423 154.746 L 302.156 154.724 302.035 156.939 M256.890 158.876 C 253.721 159.282,249.895 160.398,247.146 161.718 C 244.969 162.763,244.086 163.391,245.669 162.768 C 257.156 158.250,269.066 159.224,279.511 165.536 C 281.564 166.776,281.646 166.738,279.900 165.354 C 273.456 160.249,264.918 157.845,256.890 158.876 M257.579 161.723 C 251.535 162.745,243.850 166.681,238.976 171.253 L 238.091 172.084 238.878 171.500 C 247.007 165.475,256.819 161.988,263.442 162.771 C 271.910 163.771,280.184 169.367,285.617 177.768 C 286.939 179.812,287.115 179.921,286.214 178.137 C 280.430 166.679,268.551 159.870,257.579 161.723 M259.769 166.632 C 255.584 167.501,251.100 169.771,246.801 173.198 C 245.211 174.466,245.092 174.648,245.557 175.112 C 245.955 175.510,245.945 175.515,247.506 174.246 C 250.319 171.960,255.419 168.941,256.056 169.186 C 256.201 169.241,256.275 169.214,256.220 169.125 C 256.165 169.037,256.670 168.771,257.342 168.535 C 263.500 166.372,268.915 167.523,273.345 171.938 C 274.974 173.562,277.125 176.355,277.415 177.224 C 277.468 177.385,278.175 177.147,278.518 176.852 C 278.785 176.623,275.953 172.650,274.421 171.105 C 270.518 167.168,265.122 165.521,259.769 166.632 M159.843 171.379 C 175.234 179.730,191.933 181.313,201.007 175.280 C 202.490 174.294,203.109 173.664,201.753 174.519 C 193.600 179.667,178.687 178.545,161.024 171.456 C 159.345 170.783,157.840 170.190,157.677 170.138 C 157.515 170.086,158.489 170.644,159.843 171.379 M281.890 179.823 C 283.416 184.259,288.186 187.340,293.799 187.515 C 296.399 187.596,296.448 187.638,292.717 186.581 C 288.115 185.277,284.505 182.918,282.373 179.822 C 281.451 178.484,281.429 178.484,281.890 179.823 M244.227 181.799 C 251.840 190.857,265.065 195.089,276.476 192.120 C 278.290 191.648,282.990 189.901,281.496 190.254 C 277.922 191.099,276.511 191.374,274.327 191.653 C 264.339 192.930,254.010 189.631,245.276 182.375 C 243.506 180.905,243.450 180.874,244.227 181.799 M83.120 185.433 C 83.153 186.452,83.003 187.671,82.635 189.370 C 80.478 199.342,82.080 210.177,86.387 214.747 C 89.105 217.632,90.501 215.613,90.695 208.514 L 90.799 204.724 90.108 204.724 L 89.416 204.724 89.317 208.612 C 89.161 214.697,88.608 215.733,86.855 213.224 C 84.156 209.363,83.002 204.977,83.013 198.622 C 83.018 195.448,83.574 189.786,83.914 189.446 C 83.951 189.409,84.183 190.008,84.431 190.777 C 85.942 195.470,89.170 199.790,92.470 201.537 L 93.701 202.188 93.701 207.748 C 93.701 219.447,92.453 227.307,89.737 232.726 C 88.805 234.586,88.885 234.584,87.119 232.795 C 80.508 226.097,75.571 206.835,75.593 187.824 C 75.597 184.527,75.447 184.744,77.717 184.743 C 79.664 184.742,80.860 184.346,82.382 183.200 C 82.889 182.818,83.052 183.311,83.120 185.433 M235.093 189.567 C 235.093 190.054,235.131 190.253,235.178 190.010 C 235.225 189.766,235.225 189.368,235.178 189.124 C 235.131 188.880,235.093 189.080,235.093 189.567 M234.896 195.079 C 234.896 195.566,234.935 195.765,234.981 195.522 C 235.028 195.278,235.028 194.879,234.981 194.636 C 234.935 194.392,234.896 194.592,234.896 195.079 M106.693 197.693 C 106.693 201.992,107.473 207.037,108.882 211.862 L 109.501 213.980 111.070 215.080 C 115.888 218.456,117.761 221.597,119.285 228.857 C 121.632 240.043,125.199 242.188,142.323 242.712 C 148.319 242.896,153.034 243.168,155.488 243.471 L 156.547 243.602 153.224 245.655 C 138.921 254.491,136.565 255.600,132.087 255.604 C 129.137 255.607,128.387 255.342,125.838 253.401 C 124.946 252.721,124.175 252.165,124.125 252.165 C 123.944 252.165,125.042 254.852,125.800 256.264 C 131.321 266.551,144.254 271.522,158.836 268.961 L 159.502 268.844 158.067 270.495 C 152.102 277.360,150.798 284.139,153.745 292.964 C 156.319 300.676,162.721 309.164,167.815 311.621 C 179.665 317.338,190.216 318.531,195.770 314.783 L 196.602 314.221 204.608 315.570 L 212.615 316.918 213.935 318.041 C 220.435 323.564,228.352 325.114,234.820 322.129 C 244.627 317.602,252.800 304.206,252.328 293.428 C 252.170 289.816,248.967 285.274,243.755 281.271 C 242.651 280.423,242.664 280.424,245.276 281.329 C 258.803 286.022,272.649 285.407,279.311 279.818 C 283.344 276.434,286.394 272.374,287.803 268.515 C 288.633 266.241,288.684 266.339,286.663 266.337 C 278.417 266.329,269.567 264.647,264.714 262.165 C 262.414 260.989,262.397 261.041,265.410 260.062 C 273.163 257.543,279.254 256.796,283.331 257.864 C 289.575 259.500,293.851 254.188,297.622 240.110 C 301.087 227.172,303.566 216.159,304.753 208.422 C 304.998 206.829,305.221 205.549,305.249 205.577 C 305.600 205.928,308.145 220.319,308.458 223.720 C 308.781 227.248,307.221 238.565,304.357 253.475 C 304.152 254.541,304.015 255.679,304.053 256.004 C 304.091 256.329,304.262 258.100,304.433 259.941 C 305.007 266.122,305.867 272.281,306.570 275.246 C 306.717 275.869,306.819 276.378,306.795 276.378 C 306.771 276.378,305.182 275.846,303.264 275.197 C 301.346 274.547,299.737 274.016,299.689 274.016 C 299.641 274.016,299.746 274.348,299.924 274.754 C 300.652 276.417,301.572 279.647,301.968 281.926 C 302.381 284.306,302.756 290.748,302.482 290.748 C 302.408 290.748,301.540 290.205,300.553 289.542 L 298.760 288.336 298.889 288.982 C 299.972 294.397,300.244 303.734,299.498 309.860 C 299.020 313.780,299.131 313.687,297.638 311.408 C 296.212 309.232,296.329 309.329,295.706 309.808 C 295.276 310.139,295.263 310.211,295.485 311.091 C 295.872 312.627,295.614 317.889,294.992 321.161 C 294.216 325.241,291.847 334.400,291.470 334.777 C 291.424 334.822,291.322 333.652,291.243 332.175 C 291.164 330.699,291.027 329.566,290.939 329.657 C 290.851 329.748,288.583 334.916,285.899 341.142 L 281.018 352.461 279.076 354.381 C 258.393 374.823,211.039 386.386,176.577 379.407 C 160.062 376.063,144.084 367.794,133.169 356.941 C 120.052 343.899,115.476 337.630,111.797 327.657 L 110.925 325.295 110.827 329.111 L 110.728 332.926 109.343 331.468 C 104.052 325.895,98.720 315.923,96.530 307.502 L 96.356 306.835 95.185 308.364 L 94.014 309.894 93.647 309.031 C 91.040 302.905,89.473 294.618,89.203 285.531 L 89.075 281.201 87.897 283.408 C 87.221 284.675,86.665 285.513,86.590 285.376 C 85.976 284.244,85.349 270.821,85.522 262.500 L 85.653 256.201 83.574 258.264 L 81.496 260.328 81.496 259.406 C 81.496 252.225,84.840 241.804,88.778 236.713 C 93.139 231.075,94.810 223.725,95.057 209.094 L 95.177 201.949 100.787 198.522 C 103.873 196.637,106.464 195.092,106.545 195.087 C 106.626 195.083,106.693 196.255,106.693 197.693 M194.488 226.476 C 194.855 226.855,195.200 227.165,195.254 227.165 C 195.309 227.165,195.052 226.855,194.685 226.476 C 194.318 226.097,193.973 225.787,193.919 225.787 C 193.865 225.787,194.121 226.097,194.488 226.476 M242.081 229.546 C 242.212 229.718,242.275 229.903,242.221 229.957 C 242.168 230.011,242.287 230.202,242.486 230.383 C 242.790 230.658,242.848 230.664,242.848 230.418 C 242.848 230.257,242.622 229.924,242.345 229.679 C 242.069 229.433,241.950 229.373,242.081 229.546 M195.414 233.272 C 200.099 233.860,204.572 235.986,206.773 238.672 C 207.246 239.249,207.922 239.758,208.728 240.142 C 213.654 242.493,214.808 246.485,212.382 252.777 C 207.970 264.218,191.046 269.571,168.701 266.595 C 165.309 266.143,164.607 266.163,161.966 266.787 C 146.996 270.321,134.154 266.576,127.866 256.844 L 127.519 256.306 128.600 256.679 C 131.968 257.837,135.634 257.181,141.142 254.435 C 143.590 253.214,145.116 252.316,153.517 247.158 C 170.959 236.448,184.623 231.919,195.414 233.272 M236.774 241.325 C 242.005 242.834,247.175 246.884,255.005 255.610 C 259.693 260.835,261.882 262.622,265.418 264.113 C 269.824 265.972,277.065 267.404,283.317 267.654 C 285.022 267.722,286.417 267.850,286.417 267.939 C 286.417 269.622,282.266 275.198,278.631 278.396 C 268.694 287.142,243.480 282.968,226.911 269.834 C 214.552 260.039,211.813 246.485,221.671 243.911 C 222.473 243.701,223.722 243.211,224.445 242.822 C 228.212 240.795,232.941 240.221,236.774 241.325 M214.367 253.470 C 214.371 254.059,215.409 257.362,216.146 259.132 C 218.631 265.103,225.940 272.060,234.449 276.554 C 235.534 277.127,236.155 277.559,235.996 277.629 C 235.849 277.693,235.915 277.726,236.144 277.702 C 236.662 277.647,239.052 278.768,238.778 278.938 C 238.667 279.006,239.695 279.891,241.062 280.904 C 246.901 285.231,250.542 289.589,250.995 292.792 C 252.414 302.834,242.634 318.165,232.637 321.568 C 226.917 323.516,219.789 321.634,214.564 316.796 L 213.416 315.733 204.803 314.276 L 196.190 312.819 195.627 313.293 C 191.026 317.165,181.246 316.267,169.291 310.875 C 164.101 308.534,158.413 301.510,155.418 293.744 C 151.847 284.483,153.263 277.382,160.079 270.357 L 162.006 268.372 163.548 268.020 C 165.053 267.676,165.169 267.677,168.421 268.084 C 173.025 268.659,179.014 269.001,182.185 268.870 C 182.943 268.839,184.198 268.812,184.973 268.810 C 185.749 268.807,186.342 268.738,186.290 268.655 C 186.239 268.572,186.579 268.503,187.045 268.503 C 189.691 268.500,196.692 267.043,200.162 265.774 C 206.405 263.491,211.969 258.460,213.733 253.503 C 214.059 252.586,214.361 252.570,214.367 253.470 M227.018 275.333 C 227.207 275.382,227.517 275.382,227.707 275.333 C 227.896 275.283,227.741 275.243,227.362 275.243 C 226.983 275.243,226.828 275.283,227.018 275.333 M179.212 288.327 C 176.408 291.313,173.871 294.046,173.573 294.400 L 173.032 295.044 174.262 294.757 C 177.732 293.947,179.959 293.476,180.023 293.540 C 180.061 293.579,178.726 295.232,177.055 297.215 C 175.383 299.197,174.016 300.839,174.016 300.864 C 174.016 300.890,176.873 300.396,180.364 299.767 C 183.856 299.138,186.775 298.645,186.852 298.672 C 186.929 298.699,186.206 300.182,185.245 301.969 C 184.284 303.755,183.557 305.273,183.629 305.342 C 183.701 305.411,184.823 305.838,186.122 306.291 C 193.499 308.862,201.666 310.498,208.465 310.764 L 211.517 310.884 211.994 308.685 C 212.256 307.476,212.535 306.555,212.613 306.639 C 212.692 306.723,213.126 307.689,213.578 308.786 L 214.400 310.781 215.517 310.999 C 219.248 311.725,224.204 311.754,227.559 311.070 L 229.232 310.728 229.331 308.427 L 229.429 306.125 232.726 308.569 C 234.540 309.914,236.024 310.989,236.024 310.959 C 236.024 310.929,233.913 306.347,231.333 300.777 L 226.643 290.650 223.016 290.718 C 209.611 290.969,194.661 288.111,185.650 283.573 L 184.309 282.898 179.212 288.327 M186.983 285.725 C 195.884 289.692,208.155 291.989,220.598 292.016 L 225.743 292.028 229.093 299.262 C 230.936 303.241,232.405 306.496,232.358 306.496 C 232.311 306.496,231.322 305.781,230.162 304.907 L 228.051 303.318 227.997 306.465 L 227.943 309.612 226.521 309.872 C 224.687 310.207,219.291 310.208,217.112 309.874 L 215.424 309.615 214.173 306.530 C 213.485 304.833,212.749 303.046,212.539 302.559 L 212.156 301.673 211.689 303.740 C 211.432 304.877,211.034 306.639,210.805 307.657 L 210.388 309.506 207.927 309.375 C 201.418 309.027,191.011 306.853,186.170 304.830 L 185.466 304.536 187.530 300.674 C 188.665 298.550,189.566 296.786,189.531 296.755 C 189.497 296.724,186.856 297.176,183.664 297.759 C 180.471 298.343,177.802 298.798,177.732 298.770 C 177.662 298.743,179.021 297.054,180.752 295.017 C 182.482 292.980,183.866 291.281,183.827 291.242 C 183.788 291.203,182.428 291.476,180.805 291.849 C 179.182 292.222,177.735 292.503,177.588 292.474 C 177.442 292.445,178.940 290.684,180.935 288.543 C 182.922 286.410,184.636 284.698,184.744 284.739 C 184.852 284.781,185.860 285.224,186.983 285.725 " stroke="none" fill="#8b8c8b" fill-rule="evenodd"></path><path id="path4" d="M280.110 31.545 C 280.926 32.414,281.102 32.571,281.102 32.423 C 281.102 32.391,280.682 31.971,280.167 31.488 L 279.232 30.610 280.110 31.545 M256.851 68.848 C 257.967 68.883,259.738 68.883,260.788 68.847 C 261.838 68.812,260.925 68.783,258.760 68.784 C 256.594 68.784,255.736 68.813,256.851 68.848 M264.717 69.037 C 264.962 69.084,265.316 69.082,265.504 69.033 C 265.692 68.984,265.492 68.945,265.059 68.947 C 264.626 68.949,264.472 68.990,264.717 69.037 M282.776 74.803 C 283.309 75.344,283.789 75.787,283.843 75.787 C 283.898 75.787,283.506 75.344,282.972 74.803 C 282.439 74.262,281.959 73.819,281.905 73.819 C 281.850 73.819,282.242 74.262,282.776 74.803 M284.449 78.570 C 281.226 81.142,281.344 80.916,282.825 81.682 C 283.447 82.004,284.244 82.457,284.595 82.688 C 285.434 83.240,285.502 83.057,285.400 80.510 C 285.311 78.294,285.166 77.998,284.449 78.570 M227.745 81.644 L 227.067 82.382 227.805 81.704 C 228.211 81.330,228.543 80.998,228.543 80.965 C 228.543 80.815,228.377 80.957,227.745 81.644 M287.069 84.547 C 287.070 85.197,287.107 85.439,287.151 85.085 C 287.194 84.731,287.193 84.200,287.149 83.904 C 287.104 83.608,287.068 83.898,287.069 84.547 M223.611 85.778 L 222.933 86.516 223.671 85.837 C 224.077 85.464,224.409 85.132,224.409 85.099 C 224.409 84.949,224.243 85.090,223.611 85.778 M287.096 90.375 C 286.601 91.361,286.227 92.199,286.266 92.237 C 286.305 92.276,286.752 91.469,287.261 90.445 C 287.770 89.421,288.144 88.583,288.091 88.583 C 288.039 88.583,287.591 89.389,287.096 90.375 M290.962 92.004 L 290.487 92.618 291.050 92.083 C 291.360 91.788,291.573 91.512,291.525 91.469 C 291.477 91.426,291.223 91.667,290.962 92.004 M291.948 93.785 C 292.089 93.926,295.075 93.967,295.212 93.830 C 295.283 93.759,294.559 93.701,293.602 93.701 C 292.646 93.701,291.901 93.739,291.948 93.785 M214.259 97.293 L 213.681 97.933 214.321 97.355 C 214.673 97.037,214.961 96.749,214.961 96.715 C 214.961 96.563,214.798 96.697,214.259 97.293 M293.063 97.383 C 293.308 97.430,293.663 97.429,293.851 97.379 C 294.039 97.330,293.839 97.292,293.406 97.294 C 292.972 97.296,292.818 97.336,293.063 97.383 M210.129 101.427 L 209.350 102.264 210.187 101.486 C 210.647 101.058,211.024 100.681,211.024 100.649 C 211.024 100.500,210.852 100.649,210.129 101.427 M185.827 117.717 C 185.231 118.031,184.813 118.293,184.898 118.298 C 185.107 118.310,187.008 117.340,187.008 117.221 C 187.008 117.090,187.035 117.078,185.827 117.717 M306.179 120.472 C 306.179 121.934,306.210 122.532,306.248 121.801 C 306.286 121.070,306.286 119.875,306.248 119.144 C 306.210 118.413,306.179 119.011,306.179 120.472 M122.719 139.469 C 122.719 141.417,122.749 142.188,122.785 141.181 C 122.820 140.174,122.820 138.580,122.784 137.638 C 122.748 136.696,122.719 137.520,122.719 139.469 M122.497 146.555 C 122.499 147.096,122.537 147.295,122.582 146.995 C 122.627 146.696,122.626 146.253,122.580 146.011 C 122.533 145.769,122.496 146.014,122.497 146.555 M302.408 148.819 C 302.408 149.198,302.448 149.353,302.498 149.163 C 302.547 148.974,302.547 148.664,302.498 148.474 C 302.448 148.285,302.408 148.440,302.408 148.819 M122.294 149.705 C 122.296 150.138,122.336 150.292,122.383 150.047 C 122.430 149.802,122.429 149.448,122.379 149.260 C 122.330 149.071,122.292 149.272,122.294 149.705 M302.219 151.772 C 302.219 152.259,302.257 152.458,302.304 152.215 C 302.351 151.971,302.351 151.572,302.304 151.329 C 302.257 151.085,302.219 151.284,302.219 151.772 M302.018 155.413 C 302.020 155.846,302.061 156.000,302.108 155.756 C 302.155 155.511,302.153 155.156,302.104 154.968 C 302.054 154.780,302.016 154.980,302.018 155.413 M159.906 158.075 C 159.346 158.614,158.951 159.055,159.028 159.055 C 159.105 159.055,159.605 158.612,160.138 158.071 C 161.390 156.800,161.229 156.803,159.906 158.075 M299.409 158.169 C 299.680 158.324,299.990 158.451,300.098 158.451 C 300.207 158.451,300.074 158.324,299.803 158.169 C 299.532 158.015,299.222 157.888,299.114 157.888 C 299.006 157.888,299.139 158.015,299.409 158.169 M301.723 158.760 C 301.672 159.031,301.706 159.252,301.799 159.252 C 301.892 159.252,301.969 159.031,301.969 158.760 C 301.969 158.489,301.935 158.268,301.893 158.268 C 301.852 158.268,301.775 158.489,301.723 158.760 M164.667 159.613 C 164.174 160.904,164.758 164.701,165.702 166.339 C 170.183 174.110,189.463 177.251,197.970 171.596 C 199.911 170.306,202.737 167.079,202.754 166.135 C 202.755 166.078,201.582 166.229,200.148 166.470 C 185.087 169.009,172.656 166.936,166.303 160.827 C 165.299 159.862,164.732 159.441,164.667 159.613 M259.797 159.985 C 260.151 160.029,260.682 160.028,260.978 159.983 C 261.274 159.938,260.984 159.902,260.335 159.904 C 259.685 159.905,259.443 159.941,259.797 159.985 M145.522 161.750 C 145.711 161.799,146.021 161.799,146.211 161.750 C 146.400 161.700,146.245 161.660,145.866 161.660 C 145.487 161.660,145.332 161.700,145.522 161.750 M260.773 162.740 C 261.123 162.784,261.743 162.785,262.151 162.742 C 262.560 162.699,262.274 162.664,261.516 162.663 C 260.758 162.662,260.424 162.697,260.773 162.740 M262.943 166.281 C 263.187 166.328,263.585 166.328,263.829 166.281 C 264.072 166.234,263.873 166.195,263.386 166.195 C 262.899 166.195,262.699 166.234,262.943 166.281 M280.020 169.685 C 280.553 170.226,281.033 170.669,281.088 170.669 C 281.142 170.669,280.750 170.226,280.217 169.685 C 279.683 169.144,279.203 168.701,279.149 168.701 C 279.095 168.701,279.486 169.144,280.020 169.685 M336.614 170.768 C 337.312 171.471,337.927 172.047,337.981 172.047 C 338.035 172.047,337.509 171.471,336.811 170.768 C 336.114 170.064,335.499 169.488,335.444 169.488 C 335.390 169.488,335.917 170.064,336.614 170.768 M160.633 171.996 C 160.638 172.279,163.682 175.579,164.961 176.688 C 172.941 183.607,182.915 184.668,193.451 179.717 C 196.630 178.224,200.529 175.754,197.816 176.953 C 189.260 180.734,174.753 178.937,161.959 172.513 C 161.228 172.146,160.631 171.913,160.633 171.996 M237.342 174.673 C 237.287 174.819,237.320 175.062,237.417 175.215 C 237.545 175.417,237.593 175.345,237.595 174.951 C 237.599 174.363,237.502 174.257,237.342 174.673 M247.346 175.764 C 245.716 185.414,267.840 190.385,276.017 182.208 C 276.890 181.335,278.346 179.131,278.346 178.683 C 278.346 178.628,277.704 178.749,276.919 178.953 C 265.396 181.943,253.818 180.697,248.474 175.892 L 247.476 174.995 247.346 175.764 M263.041 179.860 C 263.231 179.910,263.541 179.910,263.730 179.860 C 263.920 179.811,263.765 179.770,263.386 179.770 C 263.007 179.770,262.852 179.811,263.041 179.860 M243.996 181.496 C 243.929 181.604,243.902 181.700,243.935 181.708 C 244.583 181.868,244.694 181.842,244.475 181.579 C 244.199 181.246,244.155 181.239,243.996 181.496 M301.638 183.071 C 301.638 183.775,301.674 184.063,301.717 183.711 C 301.761 183.359,301.761 182.783,301.717 182.431 C 301.674 182.079,301.638 182.367,301.638 183.071 M82.382 183.200 C 80.860 184.346,79.664 184.742,77.717 184.743 C 75.447 184.744,75.597 184.527,75.593 187.824 C 75.571 206.835,80.508 226.097,87.119 232.795 C 88.885 234.584,88.805 234.586,89.737 232.726 C 92.453 227.307,93.701 219.447,93.701 207.748 L 93.701 202.188 92.470 201.537 C 89.170 199.790,85.942 195.470,84.431 190.777 C 84.183 190.008,83.951 189.409,83.914 189.446 C 83.574 189.786,83.018 195.448,83.013 198.622 C 83.002 204.977,84.156 209.363,86.855 213.224 C 88.608 215.733,89.161 214.697,89.317 208.612 L 89.416 204.724 90.108 204.724 L 90.799 204.724 90.695 208.514 C 90.501 215.613,89.105 217.632,86.387 214.747 C 82.080 210.177,80.478 199.342,82.635 189.370 C 83.403 185.820,83.268 182.533,82.382 183.200 M113.916 184.353 C 113.736 184.730,113.630 185.039,113.679 185.039 C 113.814 185.039,114.412 183.834,114.321 183.744 C 114.279 183.701,114.096 183.975,113.916 184.353 M247.046 185.335 C 252.360 194.877,259.707 198.229,269.645 195.644 C 272.180 194.985,279.017 191.943,278.692 191.618 C 278.664 191.591,277.667 191.819,276.476 192.126 C 266.849 194.604,256.089 192.142,248.228 185.663 C 247.633 185.172,246.975 184.631,246.767 184.462 C 246.496 184.241,246.575 184.489,247.046 185.335 M107.946 196.555 C 107.946 197.638,107.979 198.056,108.019 197.484 C 108.059 196.912,108.059 196.026,108.018 195.515 C 107.978 195.004,107.945 195.472,107.946 196.555 M114.862 216.535 C 115.505 217.185,116.075 217.717,116.129 217.717 C 116.184 217.717,115.702 217.185,115.059 216.535 C 114.416 215.886,113.846 215.354,113.792 215.354 C 113.738 215.354,114.219 215.886,114.862 216.535 M328.236 216.585 L 327.657 217.224 328.297 216.646 C 328.894 216.107,329.027 215.945,328.875 215.945 C 328.842 215.945,328.554 216.233,328.236 216.585 M239.043 219.488 C 239.043 220.300,239.077 220.632,239.120 220.226 C 239.162 219.820,239.162 219.156,239.120 218.750 C 239.077 218.344,239.043 218.676,239.043 219.488 M239.823 219.094 C 239.823 219.690,239.860 219.934,239.905 219.636 C 239.950 219.338,239.950 218.851,239.905 218.553 C 239.860 218.255,239.823 218.499,239.823 219.094 M189.626 219.291 C 189.626 219.887,189.663 220.130,189.708 219.833 C 189.753 219.535,189.753 219.048,189.708 218.750 C 189.663 218.452,189.626 218.696,189.626 219.291 M196.982 221.542 C 195.382 221.972,194.319 223.043,193.882 224.664 C 193.622 225.631,194.672 226.835,197.392 228.689 C 198.285 229.297,199.016 229.869,199.016 229.959 C 199.016 230.187,195.999 228.656,194.653 227.744 C 193.422 226.910,193.305 226.960,193.309 228.313 C 193.311 229.012,193.968 230.656,194.516 231.335 C 194.688 231.549,195.423 231.775,196.582 231.971 C 201.151 232.745,204.764 234.495,207.382 237.204 C 207.923 237.764,208.898 238.491,209.547 238.820 C 211.558 239.838,213.882 241.920,214.269 243.050 C 214.276 243.070,215.119 243.252,216.143 243.453 L 218.005 243.819 218.796 243.382 C 219.231 243.142,220.251 242.748,221.063 242.507 C 221.875 242.266,223.056 241.811,223.687 241.496 C 227.860 239.413,232.829 238.734,236.399 239.759 C 237.681 240.126,240.996 237.560,242.817 234.790 C 243.661 233.507,243.633 233.286,242.686 233.776 C 242.105 234.077,240.312 234.637,239.911 234.643 C 239.519 234.650,239.830 234.244,240.305 234.129 C 241.185 233.918,242.287 233.299,243.114 232.552 L 243.888 231.853 243.588 231.133 C 243.423 230.737,243.150 230.281,242.980 230.118 C 242.701 229.852,242.693 229.866,242.897 230.266 C 243.183 230.823,242.973 230.833,242.395 230.290 L 241.949 229.871 241.025 230.483 C 239.856 231.257,238.387 231.809,236.675 232.117 C 235.417 232.343,235.245 232.441,233.879 233.707 C 228.534 238.659,220.990 239.134,215.554 234.860 C 214.972 234.402,215.183 234.050,215.806 234.441 C 222.183 238.439,230.272 236.596,235.488 229.956 C 236.328 228.887,236.367 228.795,235.878 229.033 C 232.176 230.840,222.470 229.117,208.861 224.237 C 206.752 223.480,205.000 222.887,204.968 222.919 C 204.936 222.951,205.732 223.468,206.737 224.069 C 210.459 226.296,213.990 229.396,214.953 231.284 C 215.779 232.903,215.360 232.887,214.029 231.250 C 213.479 230.573,212.496 229.581,211.846 229.045 L 210.663 228.071 208.235 228.061 C 204.381 228.045,200.982 225.879,199.949 222.781 C 199.741 222.155,197.654 222.699,196.919 223.571 C 196.639 223.903,196.383 224.029,196.163 223.945 C 195.411 223.657,196.838 222.088,198.338 221.554 C 199.405 221.174,198.385 221.165,196.982 221.542 M192.520 226.083 C 192.887 226.462,193.232 226.772,193.286 226.772 C 193.340 226.772,193.084 226.462,192.717 226.083 C 192.349 225.704,192.004 225.394,191.950 225.394 C 191.896 225.394,192.152 225.704,192.520 226.083 M191.585 231.632 C 191.774 231.681,192.084 231.681,192.274 231.632 C 192.463 231.582,192.308 231.542,191.929 231.542 C 191.550 231.542,191.395 231.582,191.585 231.632 M123.425 236.479 C 123.425 236.513,123.713 236.801,124.065 237.119 L 124.705 237.697 124.127 237.057 C 123.588 236.461,123.425 236.327,123.425 236.479 M144.833 241.478 C 145.076 241.524,145.475 241.524,145.719 241.478 C 145.962 241.431,145.763 241.392,145.276 241.392 C 144.788 241.392,144.589 241.431,144.833 241.478 M215.597 251.181 C 215.597 251.560,215.637 251.715,215.687 251.526 C 215.736 251.336,215.736 251.026,215.687 250.837 C 215.637 250.647,215.597 250.802,215.597 251.181 M278.396 256.049 C 278.802 256.091,279.466 256.091,279.872 256.049 C 280.278 256.006,279.946 255.972,279.134 255.972 C 278.322 255.972,277.990 256.006,278.396 256.049 M222.096 269.033 C 222.286 269.083,222.596 269.083,222.785 269.033 C 222.975 268.984,222.820 268.943,222.441 268.943 C 222.062 268.943,221.907 268.984,222.096 269.033 M212.748 288.328 C 212.993 288.375,213.348 288.373,213.536 288.324 C 213.724 288.275,213.524 288.236,213.091 288.239 C 212.657 288.241,212.503 288.281,212.748 288.328 M217.580 288.533 C 218.749 288.568,220.610 288.568,221.713 288.533 C 222.817 288.498,221.860 288.469,219.587 288.469 C 217.313 288.469,216.410 288.498,217.580 288.533 M218.065 290.694 C 218.418 290.738,218.950 290.737,219.246 290.692 C 219.541 290.647,219.252 290.611,218.602 290.612 C 217.953 290.613,217.711 290.650,218.065 290.694 M222.592 290.694 C 222.946 290.738,223.477 290.737,223.773 290.692 C 224.069 290.647,223.780 290.611,223.130 290.612 C 222.480 290.613,222.238 290.650,222.592 290.694 M251.030 294.094 C 251.030 294.473,251.070 294.628,251.120 294.439 C 251.169 294.250,251.169 293.939,251.120 293.750 C 251.070 293.561,251.030 293.716,251.030 294.094 M173.344 294.469 C 173.030 294.816,173.245 295.324,173.570 295.000 C 173.635 294.935,173.571 294.882,173.427 294.882 C 173.244 294.882,173.272 294.766,173.524 294.488 C 173.720 294.272,173.836 294.094,173.781 294.094 C 173.727 294.094,173.531 294.263,173.344 294.469 M186.467 315.695 C 186.873 315.737,187.537 315.737,187.943 315.695 C 188.349 315.652,188.017 315.617,187.205 315.617 C 186.393 315.617,186.061 315.652,186.467 315.695 " stroke="none" fill="#dda6a6" fill-rule="evenodd"></path><path id="path5" d="M172.638 268.663 C 172.638 269.005,175.344 272.353,176.826 273.845 C 181.558 278.609,187.412 282.158,194.685 284.670 C 209.997 289.961,231.719 289.619,242.571 283.916 L 243.956 283.188 243.261 282.587 C 242.878 282.256,241.868 281.488,241.017 280.880 L 239.469 279.773 237.127 280.133 C 215.191 283.507,194.005 279.904,179.577 270.346 C 177.214 268.781,177.386 268.835,174.065 268.619 C 173.280 268.569,172.638 268.588,172.638 268.663 " stroke="none" fill="#935e74" fill-rule="evenodd"></path><path id="path6" d="M204.874 8.997 C 205.119 9.045,205.474 9.043,205.662 8.994 C 205.850 8.944,205.650 8.906,205.217 8.908 C 204.783 8.910,204.629 8.950,204.874 8.997 M214.126 8.997 C 214.371 9.045,214.726 9.043,214.914 8.994 C 215.102 8.944,214.902 8.906,214.469 8.908 C 214.035 8.910,213.881 8.950,214.126 8.997 M113.185 48.967 L 111.319 50.886 113.238 49.020 C 114.294 47.993,115.157 47.130,115.157 47.100 C 115.157 46.958,114.918 47.184,113.185 48.967 M252.313 50.926 C 252.557 50.973,252.955 50.973,253.199 50.926 C 253.442 50.879,253.243 50.841,252.756 50.841 C 252.269 50.841,252.069 50.879,252.313 50.926 M292.189 61.024 C 292.189 61.727,292.225 62.015,292.268 61.663 C 292.312 61.312,292.312 60.736,292.268 60.384 C 292.225 60.032,292.189 60.320,292.189 61.024 M251.951 69.090 C 241.217 70.437,228.880 78.716,219.820 90.650 C 211.605 101.470,202.459 109.047,188.878 116.280 C 171.624 125.471,147.533 132.819,124.754 135.839 L 122.835 136.094 122.834 138.667 C 122.832 161.431,117.500 182.157,109.027 192.338 L 108.071 193.487 108.071 196.798 C 108.071 201.715,108.817 206.860,110.171 211.289 L 110.704 213.031 112.193 214.131 C 117.152 217.795,119.159 221.213,120.672 228.575 C 121.410 232.168,122.060 234.218,122.856 235.463 C 125.405 239.451,131.480 241.313,142.028 241.339 C 145.554 241.348,150.736 241.626,155.118 242.042 L 158.563 242.368 160.039 241.523 C 171.010 235.244,185.110 231.063,193.354 231.645 L 194.680 231.738 193.974 230.387 C 193.366 229.222,193.280 228.895,193.352 228.014 C 193.435 227.001,193.425 226.980,192.313 225.793 C 187.689 220.858,189.176 213.577,196.514 205.217 C 197.739 203.821,197.531 204.656,196.210 206.439 C 190.471 214.186,189.526 220.179,193.287 224.991 L 193.664 225.473 193.879 224.676 C 194.722 221.545,198.498 220.370,202.657 221.945 C 219.336 228.259,228.638 230.470,234.252 229.453 C 236.199 229.100,236.305 229.007,237.428 226.673 C 239.639 222.075,239.561 217.564,237.101 207.677 C 234.686 197.971,234.356 192.984,235.530 183.957 C 236.216 178.688,237.784 172.010,237.495 175.591 C 237.438 176.294,237.078 181.964,236.695 188.189 L 235.999 199.508 236.427 201.378 C 236.662 202.406,237.241 204.721,237.713 206.521 C 240.378 216.692,240.526 222.979,238.205 227.527 L 237.834 228.255 238.566 228.185 C 240.253 228.024,243.024 229.602,243.534 231.014 C 243.836 231.848,243.888 231.850,244.429 231.052 C 247.487 226.540,247.646 217.461,244.767 211.779 C 244.446 211.146,244.358 210.814,244.523 210.865 C 245.035 211.023,246.647 214.633,247.276 217.029 C 248.999 223.591,247.707 230.066,244.094 232.976 C 243.824 233.194,243.434 233.703,243.228 234.106 C 242.350 235.824,239.821 238.408,238.010 239.436 L 237.190 239.902 238.427 240.351 C 243.742 242.276,249.201 246.714,256.380 254.945 C 257.549 256.285,259.156 257.973,259.951 258.695 L 261.397 260.007 262.933 259.434 C 271.134 256.371,278.667 255.314,283.642 256.527 C 290.471 258.192,293.876 251.484,300.297 223.720 C 303.540 209.699,304.306 203.992,303.475 200.058 C 302.157 193.822,301.770 189.219,301.636 178.216 L 301.525 169.130 300.660 169.501 C 295.824 171.574,293.774 170.950,276.968 162.288 C 272.692 160.084,268.351 157.913,267.323 157.464 L 265.453 156.648 262.303 156.818 C 251.755 157.388,248.682 156.619,250.253 153.804 C 250.523 153.320,264.438 137.404,264.520 137.486 C 264.549 137.515,263.204 139.988,261.531 142.982 C 259.858 145.976,258.518 148.425,258.554 148.425 C 262.144 148.425,267.042 147.112,268.556 145.744 L 269.329 145.046 269.788 145.477 C 270.403 146.055,270.339 146.157,268.301 147.829 C 267.330 148.626,266.535 149.297,266.535 149.322 C 266.535 149.347,267.266 149.204,268.159 149.006 C 275.243 147.430,282.415 147.421,285.433 148.982 C 286.029 149.290,287.446 150.026,288.583 150.617 C 292.128 152.462,296.412 153.686,300.609 154.052 L 302.104 154.183 302.242 151.550 C 302.626 144.231,303.674 135.900,304.913 130.315 C 307.403 119.095,305.832 108.314,300.740 101.673 C 297.880 97.943,294.906 96.869,290.362 97.928 C 289.229 98.191,288.262 98.367,288.213 98.318 C 288.097 98.202,287.810 98.395,291.584 96.047 L 294.882 93.996 291.990 93.941 L 289.098 93.887 290.267 92.692 C 291.382 91.553,291.409 91.502,290.846 91.610 C 288.791 92.007,286.378 92.349,286.285 92.256 C 286.225 92.196,286.851 90.864,287.675 89.295 C 289.445 85.925,289.425 86.010,288.238 86.918 L 287.303 87.633 287.177 86.484 C 287.107 85.852,287.034 84.759,287.014 84.055 C 286.981 82.925,286.953 82.841,286.774 83.333 C 286.523 84.022,285.872 83.933,285.034 83.095 C 284.733 82.795,283.859 82.219,283.090 81.815 C 281.590 81.027,281.494 80.903,282.060 80.487 C 282.262 80.338,283.013 79.745,283.729 79.168 L 285.031 78.120 284.523 77.118 C 282.793 73.703,276.069 70.464,268.443 69.372 C 265.940 69.013,254.163 68.812,251.951 69.090 M288.038 77.165 C 288.038 77.544,288.078 77.699,288.128 77.510 C 288.177 77.320,288.177 77.010,288.128 76.821 C 288.078 76.631,288.038 76.786,288.038 77.165 M294.181 90.797 L 293.602 91.437 294.242 90.859 C 294.838 90.320,294.972 90.157,294.820 90.157 C 294.786 90.157,294.499 90.445,294.181 90.797 M298.130 92.423 C 298.590 92.583,299.803 92.625,299.803 92.480 C 299.803 92.394,299.382 92.330,298.868 92.338 C 298.354 92.347,298.022 92.385,298.130 92.423 M179.921 131.594 C 183.536 132.251,187.514 133.585,190.994 135.306 L 193.110 136.352 193.110 134.428 L 193.110 132.503 201.329 138.228 C 205.849 141.376,209.966 144.256,210.479 144.628 L 211.410 145.304 210.934 146.242 C 209.218 149.629,206.824 149.655,200.886 146.351 C 196.300 143.800,195.496 143.616,192.323 144.399 C 189.553 145.081,180.273 144.982,172.736 144.188 L 170.177 143.919 160.827 146.082 C 155.684 147.272,151.344 148.285,151.181 148.333 C 151.019 148.381,151.506 147.835,152.264 147.119 C 153.282 146.158,153.462 145.921,152.953 146.213 C 152.574 146.430,150.551 147.600,148.458 148.813 C 146.365 150.025,144.616 150.981,144.571 150.935 C 144.506 150.871,148.267 145.589,149.285 144.313 C 149.513 144.028,148.319 144.759,145.472 146.649 C 143.009 148.285,142.229 148.736,142.427 148.414 C 142.522 148.258,143.146 147.377,143.814 146.457 C 145.478 144.161,147.261 141.149,148.665 138.263 C 150.843 133.784,151.712 133.357,160.436 132.485 C 162.765 132.253,166.043 131.849,167.719 131.589 C 171.412 131.016,176.758 131.018,179.921 131.594 M173.175 132.426 C 173.524 132.469,174.144 132.470,174.553 132.427 C 174.961 132.385,174.675 132.349,173.917 132.348 C 173.159 132.347,172.825 132.382,173.175 132.426 M194.362 137.008 C 194.362 138.036,194.395 138.457,194.436 137.943 C 194.477 137.429,194.477 136.587,194.436 136.073 C 194.395 135.559,194.362 135.979,194.362 137.008 M121.309 143.602 C 121.312 144.035,121.352 144.189,121.399 143.945 C 121.446 143.700,121.444 143.345,121.395 143.157 C 121.346 142.969,121.307 143.169,121.309 143.602 M184.113 143.650 C 184.848 143.688,185.999 143.688,186.672 143.649 C 187.344 143.611,186.742 143.580,185.335 143.580 C 183.927 143.581,183.377 143.612,184.113 143.650 M183.296 146.662 C 187.827 147.119,192.879 148.465,196.660 150.221 C 198.771 151.202,198.832 151.364,196.834 150.681 C 182.901 145.920,168.799 147.233,157.677 154.326 L 155.807 155.518 156.890 154.521 C 163.216 148.697,173.406 145.665,183.296 146.662 M186.029 149.413 C 195.078 150.502,203.156 156.194,207.298 164.400 C 208.179 166.145,207.999 165.997,206.518 163.761 C 204.165 160.208,201.894 157.839,198.507 155.406 C 187.944 147.819,170.925 149.434,160.827 158.982 L 159.744 160.005 156.693 160.512 C 151.669 161.347,148.757 161.627,144.094 161.722 C 139.057 161.825,138.751 161.740,143.012 161.423 C 146.756 161.145,150.479 160.622,155.196 159.713 L 158.915 158.997 160.215 157.812 C 167.267 151.391,176.769 148.299,186.029 149.413 M256.841 149.749 C 257.192 149.792,257.768 149.792,258.120 149.749 C 258.472 149.705,258.184 149.669,257.480 149.669 C 256.777 149.669,256.489 149.705,256.841 149.749 M186.106 153.449 C 186.738 153.614,187.355 153.812,187.476 153.889 C 187.598 153.966,187.741 154.038,187.795 154.049 C 187.955 154.082,188.606 154.336,189.862 154.856 C 193.264 156.265,197.309 160.066,199.086 163.524 C 199.557 164.441,199.534 164.474,198.081 164.923 C 186.647 168.460,175.559 166.631,167.277 159.843 C 166.683 159.355,166.055 158.712,165.882 158.413 L 165.567 157.870 167.180 157.060 C 173.475 153.894,181.753 152.315,186.106 153.449 M299.606 155.043 C 298.578 155.194,297.002 155.415,296.105 155.534 L 294.475 155.751 296.598 156.737 C 301.136 158.845,301.636 159.059,301.747 158.949 C 302.020 158.676,302.018 154.724,301.745 154.747 C 301.597 154.760,300.635 154.893,299.606 155.043 M255.069 155.851 C 255.421 155.895,255.997 155.895,256.348 155.851 C 256.700 155.807,256.412 155.772,255.709 155.772 C 255.005 155.772,254.717 155.807,255.069 155.851 M266.053 159.057 C 271.076 159.916,275.575 161.947,279.884 165.302 C 281.927 166.893,281.855 167.058,279.701 165.720 C 269.508 159.383,256.031 158.260,245.592 162.876 C 243.394 163.848,244.104 163.206,246.654 161.916 C 252.371 159.023,259.613 157.956,266.053 159.057 M169.401 163.235 C 176.519 167.480,187.379 168.623,200.148 166.470 C 201.582 166.229,202.755 166.078,202.754 166.135 C 202.748 166.504,201.412 168.461,200.480 169.467 C 195.766 174.559,187.132 175.842,176.372 173.052 C 168.528 171.018,164.567 167.174,164.567 161.595 C 164.567 159.142,164.556 159.147,166.303 160.827 C 167.147 161.639,168.542 162.723,169.401 163.235 M266.043 161.790 C 274.245 163.494,282.315 170.048,286.303 178.246 C 287.387 180.476,287.491 181.142,286.463 179.276 C 282.041 171.248,273.625 164.825,265.262 163.098 C 258.236 161.647,248.555 164.676,239.449 171.176 C 237.482 172.580,238.295 171.650,240.748 169.690 C 248.933 163.151,258.384 160.200,266.043 161.790 M266.929 166.656 C 270.852 167.541,274.602 170.482,277.571 175.000 C 278.784 176.846,278.783 176.867,277.411 177.476 C 269.319 181.068,258.280 180.521,250.554 176.147 C 249.831 175.737,248.856 175.318,248.389 175.215 L 247.539 175.029 248.499 175.905 C 253.732 180.685,265.417 181.938,276.919 178.953 C 277.704 178.749,278.346 178.628,278.346 178.683 C 278.346 179.131,276.890 181.335,276.017 182.208 C 272.624 185.601,267.270 186.849,260.099 185.919 C 251.705 184.830,247.379 181.607,247.359 176.427 C 247.353 174.890,247.228 174.744,246.386 175.295 C 245.969 175.568,245.902 175.555,245.494 175.121 L 245.053 174.652 246.162 173.694 C 252.873 167.900,260.694 165.249,266.929 166.656 M160.925 171.363 C 177.973 178.437,193.414 179.581,201.891 174.398 L 202.854 173.809 202.140 174.454 C 201.045 175.441,196.027 178.489,193.602 179.639 C 182.979 184.678,172.989 183.649,164.961 176.688 C 163.726 175.617,160.639 172.283,160.633 172.014 C 160.631 171.942,159.877 171.472,158.957 170.970 C 156.328 169.537,156.709 169.613,160.925 171.363 M284.286 181.927 C 286.517 184.104,289.270 185.593,292.913 186.593 C 293.725 186.816,294.833 187.124,295.374 187.278 L 296.358 187.557 294.274 187.578 C 289.117 187.629,284.131 184.845,282.302 180.895 C 281.347 178.833,281.300 178.217,282.196 179.528 C 282.604 180.123,283.544 181.203,284.286 181.927 M245.030 182.128 C 254.820 190.701,267.380 193.733,279.959 190.558 C 282.640 189.881,282.782 189.915,280.768 190.747 C 279.923 191.096,278.381 191.857,277.340 192.439 C 264.611 199.549,253.880 197.258,247.472 186.063 C 246.802 184.892,245.849 183.541,245.355 183.060 C 244.345 182.078,243.016 180.443,243.611 180.916 C 243.823 181.085,244.461 181.630,245.030 182.128 M335.888 183.366 C 335.889 184.016,335.926 184.258,335.969 183.904 C 336.013 183.550,336.012 183.019,335.967 182.723 C 335.923 182.427,335.887 182.717,335.888 183.366 M335.886 188.780 C 335.886 189.375,335.923 189.619,335.968 189.321 C 336.013 189.023,336.013 188.536,335.968 188.238 C 335.923 187.940,335.886 188.184,335.886 188.780 M106.567 196.850 C 106.567 197.879,106.600 198.300,106.641 197.785 C 106.681 197.271,106.681 196.430,106.641 195.915 C 106.600 195.401,106.567 195.822,106.567 196.850 M95.155 207.776 C 95.156 209.183,95.187 209.733,95.225 208.998 C 95.263 208.262,95.263 207.111,95.224 206.439 C 95.186 205.766,95.155 206.368,95.155 207.776 M308.510 225.787 C 308.510 226.166,308.551 226.321,308.600 226.132 C 308.650 225.942,308.650 225.632,308.600 225.443 C 308.551 225.253,308.510 225.408,308.510 225.787 M211.024 241.597 C 211.024 241.631,211.312 241.919,211.663 242.237 L 212.303 242.815 211.725 242.175 C 211.186 241.579,211.024 241.445,211.024 241.597 M144.835 242.856 C 145.080 242.903,145.434 242.901,145.622 242.852 C 145.811 242.803,145.610 242.764,145.177 242.766 C 144.744 242.768,144.590 242.809,144.835 242.856 M214.373 243.136 C 214.374 243.176,214.551 243.770,214.766 244.457 C 214.981 245.143,215.157 245.931,215.157 246.208 C 215.157 246.686,215.188 246.671,215.721 245.934 C 216.032 245.506,216.662 244.843,217.122 244.461 L 217.958 243.766 216.607 243.537 C 215.864 243.411,215.057 243.253,214.813 243.186 C 214.569 243.119,214.371 243.097,214.373 243.136 M213.617 253.797 C 211.592 258.684,207.323 262.708,201.461 265.257 L 200.012 265.887 203.697 266.610 C 209.802 267.807,216.941 268.719,221.978 268.944 L 223.385 269.007 221.805 267.338 C 217.967 263.283,215.880 259.613,214.640 254.738 C 214.380 253.717,214.141 252.855,214.107 252.821 C 214.074 252.788,213.854 253.227,213.617 253.797 M83.461 258.219 L 81.398 260.335 83.496 258.289 C 85.410 256.423,85.603 256.284,85.684 256.714 C 85.767 257.153,85.775 257.148,85.800 256.644 C 85.840 255.830,85.695 255.928,83.461 258.219 M278.494 257.426 C 278.846 257.470,279.422 257.470,279.774 257.426 C 280.125 257.382,279.838 257.346,279.134 257.346 C 278.430 257.346,278.142 257.382,278.494 257.426 M258.071 259.154 C 258.438 259.532,258.783 259.843,258.837 259.843 C 258.891 259.843,258.635 259.532,258.268 259.154 C 257.900 258.775,257.556 258.465,257.502 258.465 C 257.447 258.465,257.704 258.775,258.071 259.154 M85.504 263.583 C 85.504 264.611,85.537 265.032,85.578 264.518 C 85.618 264.003,85.618 263.162,85.578 262.648 C 85.537 262.133,85.504 262.554,85.504 263.583 M223.220 266.585 C 224.036 267.454,224.213 267.610,224.213 267.462 C 224.213 267.431,223.792 267.010,223.278 266.527 L 222.343 265.650 223.220 266.585 M284.205 266.281 C 284.450 266.328,284.804 266.326,284.992 266.277 C 285.181 266.228,284.980 266.189,284.547 266.191 C 284.114 266.194,283.960 266.234,284.205 266.281 M163.386 268.057 C 160.527 268.714,155.491 275.171,154.132 279.921 C 151.545 288.966,159.421 305.991,168.187 310.303 C 179.801 316.016,190.494 317.173,195.609 313.271 L 196.248 312.784 204.804 314.236 L 213.360 315.688 214.406 316.629 C 221.121 322.666,229.340 323.978,235.869 320.053 C 247.038 313.340,254.354 296.654,249.428 289.126 C 248.459 287.644,245.970 284.876,244.712 283.880 L 243.990 283.308 242.025 284.275 C 228.761 290.806,204.079 289.841,188.470 282.182 C 182.238 279.124,176.388 274.382,173.336 269.915 L 172.404 268.552 170.864 268.417 C 170.016 268.343,168.497 268.157,167.486 268.003 C 165.305 267.671,165.048 267.675,163.386 268.057 M85.503 269.587 C 85.502 270.561,85.536 270.984,85.577 270.528 C 85.618 270.071,85.619 269.273,85.578 268.756 C 85.537 268.238,85.504 268.612,85.503 269.587 M280.315 276.673 C 279.508 277.485,278.893 278.150,278.947 278.150 C 279.001 278.150,279.705 277.485,280.512 276.673 C 281.318 275.861,281.934 275.197,281.880 275.197 C 281.826 275.197,281.122 275.861,280.315 276.673 M224.262 277.892 C 224.451 277.941,224.761 277.941,224.951 277.892 C 225.140 277.842,224.985 277.802,224.606 277.802 C 224.227 277.802,224.072 277.842,224.262 277.892 M184.899 283.159 C 191.398 287.410,210.251 291.027,223.720 290.607 L 226.673 290.515 231.364 300.689 C 233.943 306.284,236.024 310.892,235.987 310.929 C 235.950 310.966,234.438 309.897,232.626 308.554 L 229.331 306.112 229.331 308.438 L 229.331 310.764 228.297 310.991 C 224.465 311.831,218.663 311.817,215.217 310.960 L 214.287 310.728 213.492 308.712 C 212.624 306.511,212.512 306.378,212.327 307.333 C 212.258 307.685,212.061 308.615,211.888 309.400 L 211.575 310.827 209.423 310.827 C 203.358 310.827,194.762 309.229,187.095 306.677 C 182.957 305.299,183.158 305.800,185.208 301.969 C 186.163 300.182,186.934 298.703,186.922 298.682 C 186.909 298.661,184.022 299.163,180.507 299.798 C 176.991 300.433,174.080 300.917,174.037 300.874 C 173.964 300.801,174.733 299.866,178.601 295.325 C 179.454 294.323,180.114 293.504,180.067 293.504 C 180.021 293.504,178.449 293.858,176.573 294.292 C 174.698 294.725,173.125 295.041,173.077 294.993 C 172.993 294.909,184.217 282.874,184.380 282.874 C 184.426 282.874,184.659 283.002,184.899 283.159 M262.161 284.593 C 262.624 284.635,263.332 284.634,263.736 284.592 C 264.139 284.550,263.760 284.516,262.894 284.516 C 262.028 284.517,261.698 284.552,262.161 284.593 M216.388 292.065 C 216.577 292.114,216.887 292.114,217.077 292.065 C 217.266 292.015,217.111 291.975,216.732 291.975 C 216.353 291.975,216.198 292.015,216.388 292.065 M224.656 292.065 C 224.845 292.114,225.155 292.114,225.344 292.065 C 225.534 292.015,225.379 291.975,225.000 291.975 C 224.621 291.975,224.466 292.015,224.656 292.065 M299.857 299.803 C 299.857 300.290,299.895 300.490,299.942 300.246 C 299.989 300.002,299.989 299.604,299.942 299.360 C 299.895 299.117,299.857 299.316,299.857 299.803 M227.836 306.299 C 227.836 308.086,227.866 308.816,227.902 307.923 C 227.939 307.030,227.939 305.568,227.902 304.675 C 227.866 303.782,227.836 304.513,227.836 306.299 M299.857 304.331 C 299.857 304.818,299.895 305.017,299.942 304.774 C 299.989 304.530,299.989 304.131,299.942 303.888 C 299.895 303.644,299.857 303.844,299.857 304.331 M163.976 309.154 C 164.564 309.749,165.090 310.236,165.144 310.236 C 165.198 310.236,164.761 309.749,164.173 309.154 C 163.585 308.558,163.060 308.071,163.006 308.071 C 162.951 308.071,163.388 308.558,163.976 309.154 M279.026 354.380 L 278.248 355.217 279.085 354.438 C 279.863 353.715,280.012 353.543,279.863 353.543 C 279.831 353.543,279.454 353.920,279.026 354.380 M131.102 354.975 C 131.102 355.005,131.789 355.692,132.628 356.501 L 134.154 357.972 132.682 356.447 C 131.315 355.030,131.102 354.831,131.102 354.975 M192.569 381.435 C 192.758 381.484,193.068 381.484,193.258 381.435 C 193.447 381.385,193.292 381.345,192.913 381.345 C 192.534 381.345,192.379 381.385,192.569 381.435 M201.624 381.435 C 201.813 381.484,202.124 381.484,202.313 381.435 C 202.502 381.385,202.347 381.345,201.969 381.345 C 201.590 381.345,201.435 381.385,201.624 381.435 " stroke="none" fill="#e1b4ad" fill-rule="evenodd"></path><path id="path7" d="M235.085 192.323 C 235.085 192.702,235.126 192.857,235.175 192.667 C 235.225 192.478,235.225 192.168,235.175 191.978 C 235.126 191.789,235.085 191.944,235.085 192.323 M196.559 205.386 C 196.357 205.534,196.170 205.807,196.143 205.995 C 196.115 206.182,196.152 206.275,196.225 206.202 C 196.298 206.129,196.358 205.992,196.358 205.898 C 196.358 205.803,196.535 205.592,196.752 205.428 C 196.969 205.265,197.096 205.128,197.036 205.124 C 196.975 205.121,196.761 205.239,196.559 205.386 M192.618 225.984 C 193.151 226.526,193.632 226.969,193.686 226.969 C 193.740 226.969,193.348 226.526,192.815 225.984 C 192.282 225.443,191.801 225.000,191.747 225.000 C 191.693 225.000,192.085 225.443,192.618 225.984 M207.630 228.092 C 207.875 228.139,208.229 228.137,208.418 228.088 C 208.606 228.039,208.406 228.000,207.972 228.002 C 207.539 228.005,207.385 228.045,207.630 228.092 M212.205 228.211 C 212.205 228.245,212.493 228.533,212.844 228.851 L 213.484 229.429 212.906 228.789 C 212.367 228.193,212.205 228.059,212.205 228.211 M212.992 230.020 C 213.580 230.615,214.106 231.102,214.160 231.102 C 214.214 231.102,213.777 230.615,213.189 230.020 C 212.601 229.424,212.075 228.937,212.021 228.937 C 211.967 228.937,212.404 229.424,212.992 230.020 M222.591 236.753 C 222.836 236.800,223.190 236.799,223.378 236.749 C 223.566 236.700,223.366 236.662,222.933 236.664 C 222.500 236.666,222.346 236.706,222.591 236.753 M198.425 266.360 C 196.183 267.160,193.105 267.820,188.583 268.471 L 187.500 268.627 188.780 268.937 C 189.483 269.107,191.742 269.701,193.799 270.257 C 202.225 272.531,211.751 274.138,221.260 274.889 C 225.393 275.216,232.235 275.500,232.087 275.339 C 232.032 275.280,231.147 274.680,230.118 274.006 C 228.039 272.642,226.427 271.449,224.803 270.070 L 223.720 269.150 221.260 269.016 C 216.039 268.732,209.020 267.783,202.774 266.519 C 199.488 265.854,199.811 265.865,198.425 266.360 M177.953 269.166 C 177.953 269.220,178.219 269.454,178.543 269.685 C 178.868 269.916,179.134 270.061,179.134 270.007 C 179.134 269.953,178.868 269.719,178.543 269.488 C 178.219 269.257,177.953 269.112,177.953 269.166 M180.217 270.771 C 180.433 270.948,180.787 271.179,181.004 271.285 L 181.398 271.478 181.004 271.158 C 180.787 270.982,180.433 270.750,180.217 270.644 L 179.823 270.451 180.217 270.771 M182.480 272.138 C 182.480 272.192,182.835 272.417,183.268 272.638 C 183.701 272.859,184.055 272.995,184.055 272.941 C 184.055 272.887,183.701 272.662,183.268 272.441 C 182.835 272.220,182.480 272.084,182.480 272.138 M184.646 273.325 C 184.646 273.460,185.851 274.057,185.941 273.967 C 185.984 273.924,185.710 273.742,185.332 273.562 C 184.955 273.382,184.646 273.275,184.646 273.325 M187.598 274.803 C 187.977 275.011,188.376 275.180,188.484 275.180 C 188.593 275.180,188.371 275.011,187.992 274.803 C 187.613 274.596,187.215 274.426,187.106 274.426 C 186.998 274.426,187.219 274.596,187.598 274.803 M188.780 275.253 C 188.780 275.389,191.368 276.414,191.465 276.317 C 191.508 276.274,191.077 276.057,190.506 275.835 C 189.935 275.613,189.313 275.370,189.124 275.293 C 188.935 275.217,188.780 275.199,188.780 275.253 M192.224 276.651 C 192.549 276.799,193.036 276.974,193.307 277.041 C 193.702 277.138,193.683 277.108,193.209 276.892 C 192.884 276.744,192.397 276.569,192.126 276.503 C 191.731 276.406,191.750 276.435,192.224 276.651 M195.079 277.657 C 195.458 277.803,195.901 277.923,196.063 277.923 C 196.225 277.923,196.048 277.803,195.669 277.657 C 195.290 277.512,194.847 277.392,194.685 277.392 C 194.523 277.392,194.700 277.512,195.079 277.657 M196.752 278.150 C 196.969 278.243,197.279 278.319,197.441 278.319 C 197.627 278.319,197.591 278.256,197.343 278.150 C 197.126 278.057,196.816 277.980,196.654 277.980 C 196.467 277.980,196.504 278.043,196.752 278.150 M198.608 278.659 C 199.087 278.809,199.796 278.977,200.183 279.031 C 200.569 279.085,200.266 278.955,199.508 278.742 C 197.947 278.304,197.280 278.242,198.608 278.659 M235.679 280.254 C 235.869 280.303,236.179 280.303,236.368 280.254 C 236.558 280.204,236.403 280.164,236.024 280.164 C 235.645 280.164,235.490 280.204,235.679 280.254 M234.205 280.454 C 234.450 280.501,234.804 280.499,234.992 280.450 C 235.181 280.401,234.980 280.362,234.547 280.365 C 234.114 280.367,233.960 280.407,234.205 280.454 M208.907 280.648 C 209.097 280.697,209.407 280.697,209.596 280.648 C 209.786 280.598,209.631 280.557,209.252 280.557 C 208.873 280.557,208.718 280.598,208.907 280.648 M232.431 280.651 C 232.675 280.698,233.073 280.698,233.317 280.651 C 233.561 280.604,233.361 280.565,232.874 280.565 C 232.387 280.565,232.188 280.604,232.431 280.651 M210.581 280.848 C 210.824 280.895,211.223 280.895,211.467 280.848 C 211.710 280.801,211.511 280.762,211.024 280.762 C 210.536 280.762,210.337 280.801,210.581 280.848 M230.463 280.848 C 230.706 280.895,231.105 280.895,231.348 280.848 C 231.592 280.801,231.393 280.762,230.906 280.762 C 230.418 280.762,230.219 280.801,230.463 280.848 M212.648 281.047 C 212.945 281.092,213.433 281.092,213.730 281.047 C 214.028 281.001,213.784 280.965,213.189 280.965 C 212.594 280.965,212.350 281.001,212.648 281.047 M228.002 281.047 C 228.300 281.092,228.787 281.092,229.085 281.047 C 229.382 281.001,229.139 280.965,228.543 280.965 C 227.948 280.965,227.704 281.001,228.002 281.047 M215.902 281.248 C 216.474 281.288,217.360 281.287,217.871 281.247 C 218.381 281.206,217.913 281.174,216.831 281.174 C 215.748 281.175,215.330 281.208,215.902 281.248 M223.770 281.247 C 224.338 281.287,225.268 281.287,225.837 281.247 C 226.405 281.208,225.940 281.175,224.803 281.175 C 223.666 281.175,223.201 281.208,223.770 281.247 " stroke="none" fill="#7c535e" fill-rule="evenodd"></path><path id="path8" d="M264.520 179.864 C 264.765 179.911,265.119 179.909,265.307 179.860 C 265.496 179.810,265.295 179.772,264.862 179.774 C 264.429 179.776,264.275 179.817,264.520 179.864 M235.089 191.043 C 235.091 191.476,235.132 191.630,235.179 191.386 C 235.226 191.141,235.224 190.786,235.175 190.598 C 235.125 190.410,235.087 190.610,235.089 191.043 M246.896 220.276 C 246.896 220.655,246.937 220.810,246.986 220.620 C 247.036 220.431,247.036 220.121,246.986 219.931 C 246.937 219.742,246.896 219.897,246.896 220.276 M246.900 222.343 C 246.902 222.776,246.943 222.930,246.990 222.685 C 247.037 222.440,247.035 222.086,246.986 221.897 C 246.936 221.709,246.898 221.909,246.900 222.343 M247.884 222.933 C 247.886 223.366,247.927 223.520,247.974 223.275 C 248.021 223.030,248.019 222.676,247.970 222.488 C 247.921 222.300,247.882 222.500,247.884 222.933 M177.608 268.836 C 177.798 268.886,178.108 268.886,178.297 268.836 C 178.487 268.787,178.332 268.746,177.953 268.746 C 177.574 268.746,177.419 268.787,177.608 268.836 " stroke="none" fill="#806464" fill-rule="evenodd"></path></g></svg>